<svg xmlns="http://www.w3.org/2000/svg" viewBox="0 0 48 48" id="info"><path d="M43.353,14.461a.5.5,0,1,1,.5-.5A.5.5,0,0,1,43.353,14.461ZM8.648,40.938a.5.5,0,1,0,.534.464A.5.5,0,0,0,8.648,40.938ZM43.194,16.52a.5.5,0,1,0,.5-.5A.5.5,0,0,0,43.194,16.52Zm.5,2.059a.5.5,0,1,0,.5.5A.5.5,0,0,0,43.694,18.579ZM26.582,13.833A1.837,1.837,0,1,1,24.745,12,1.84,1.84,0,0,1,26.582,13.833Zm-1,0a.837.837,0,1,0-.837.838A.838.838,0,0,0,25.582,13.833ZM4.947,33.429c-.052-.487-.1-1.041-.142-1.636a.51.51,0,0,0-.535-.462.5.5,0,0,0-.463.535c.045.607.092,1.173.145,1.669A12.708,12.708,0,0,0,6.6,40.221a.5.5,0,0,0,.766-.643A11.636,11.636,0,0,1,4.947,33.429ZM40.9,13.781c.3,2.834.455,8.1.455,9.719s-.155,6.885-.455,9.72c-.276,2.612-1.6,5.931-4.422,6.685a59.5,59.5,0,0,1-12.559,1.032,59.488,59.488,0,0,1-12.559-1.032c-2.824-.754-4.147-4.073-4.422-6.686-.3-2.834-.455-8.1-.455-9.719s.154-6.885.455-9.72c.275-2.612,1.6-5.931,4.422-6.685A59.5,59.5,0,0,1,23.917,6.064,59.516,59.516,0,0,1,36.476,7.1C39.3,7.849,40.622,11.168,40.9,13.781ZM40.353,23.5c0-1.606-.154-6.814-.449-9.614-.243-2.3-1.354-5.2-3.686-5.825a59.592,59.592,0,0,0-12.3-1,59.6,59.6,0,0,0-12.3,1c-2.332.623-3.443,3.527-3.685,5.824-.3,2.8-.449,8.009-.449,9.615s.153,6.815.449,9.614c.242,2.3,1.353,5.2,3.685,5.826a59.674,59.674,0,0,0,12.3,1,59.663,59.663,0,0,0,12.3-1c2.332-.624,3.443-3.528,3.686-5.825C40.2,30.315,40.353,25.106,40.353,23.5Zm-13.9-5.135V33.29a1.711,1.711,0,0,1-3.421,0V20.08h-.269a1.672,1.672,0,0,1-1.633-1.234,1.715,1.715,0,0,1,1.647-2.2h1.96A1.717,1.717,0,0,1,26.457,18.365Zm-1,0a.716.716,0,0,0-.716-.715h-1.96a.715.715,0,0,0-.687.916.669.669,0,0,0,.673.514h.769a.5.5,0,0,1,.5.5V33.29a.711.711,0,0,0,1.421,0Z"></path></svg>