<?xml version="1.0" encoding="utf-8"?>
<!-- Generator: Adobe Illustrator 27.5.0, SVG Export Plug-In . SVG Version: 6.00 Build 0)  -->
<svg version="1.1" xmlns="http://www.w3.org/2000/svg" xmlns:xlink="http://www.w3.org/1999/xlink" x="0px" y="0px"
	 viewBox="0 0 1040 500" style="enable-background:new 0 0 1040 500;" xml:space="preserve">
<g id="BACKGROUND">
	<rect x="0.749" y="0.761" style="fill:#FFFFFF;" width="1039.251" height="499.64"/>
</g>
<g id="OBJECTS">
	<g>
		<g>
			<defs>
				<rect id="SVGID_1_" x="0.749" y="0.761" width="1039.251" height="499.64"/>
			</defs>
			<clipPath id="SVGID_00000072997855093845223790000011924036634964397751_">
				<use xlink:href="#SVGID_1_"  style="overflow:visible;"/>
			</clipPath>
			<g style="clip-path:url(#SVGID_00000072997855093845223790000011924036634964397751_);">
				<path style="fill:#1F417C;" d="M529.446,232.091c-12.657-6.678-20.345-19.173-21.021-32.86
					c-0.289-5.854-0.89-11.743-1.816-17.651c-7.94-50.635-38.075-92.665-79.873-118.967c-12.077-7.6-19.1-20.363-18.86-34.114
					c0.392-22.419-7.437-46.06-26.053-67.966c-8.966-10.551-20.994-18.519-34.634-23.021
					C260.584-91.072,187.784-25.373,198.86,45.263c0.013,0.085,0.027,0.169,0.04,0.254c2.405,15.067-2.893,30.403-14.535,41.366
					c-3.621,3.41-7.095,6.948-10.415,10.604c-11.201,12.334-28.133,18.432-45.122,16.779c-7.797-0.759-15.922-0.306-24.118,1.538
					c-34.054,7.661-60.349,38.163-55.354,70.319c6.522,41.989,39.191,54.416,60.982,57.99c11.769,1.93,21.39,9.81,24.728,20.514
					c26.07,83.621,115.213,137.197,210.542,122.249c3.357-0.526,6.68-1.132,9.967-1.814c19.905-4.129,40.353,0.452,56.388,11.767
					c35.327,24.927,87.969,28.488,134.429-5.237c12.243-8.886,21.609-20.833,26.96-34.381
					C595.1,302.145,570.828,253.924,529.446,232.091z"/>
				<path style="fill:#E7B12A;" d="M790.402-168.593c-9.644,5.103-20.816,4.576-29.727-0.878c-3.811-2.333-7.778-4.485-11.898-6.439
					c-35.302-16.753-74.72-15.83-109.243-0.804c-9.975,4.341-21.031,3.281-29.588-2.777c-13.952-9.878-32.204-15.104-53.999-12.79
					c-10.497,1.114-20.683,5.266-29.378,11.923c-55.21,42.267-45.107,116.343,4.14,139.713c0.059,0.028,0.118,0.056,0.177,0.084
					c10.523,4.958,17.905,14.884,19.809,26.925c0.592,3.745,1.327,7.454,2.204,11.115c2.956,12.354-0.477,25.638-8.817,35.627
					c-3.828,4.585-7.033,9.896-9.393,15.851c-9.805,24.739-1.891,54.405,20.507,65.073c29.247,13.931,51.109-1.306,62.723-13.495
					c6.272-6.583,15.368-9.257,23.544-6.761c63.867,19.505,135.907-13.622,167.447-80.085c1.111-2.34,2.157-4.693,3.14-7.057
					C818-7.677,829.67-18.588,843.685-23.826c30.876-11.54,55.735-43.166,54.454-86.916c-0.337-11.529-3.838-22.56-10.072-31.75
					C862.729-179.847,821.931-185.277,790.402-168.593z"/>
				<g>
					<path style="fill:#E7B12A;" d="M789.897,483.91c-24.166-41.491-77.589-54.754-118.27-29.759
						c-0.068,0.041-0.135,0.083-0.203,0.125c-9.197,5.686-20.987,4.396-28.663-3.219c-11.724-11.632-29.411-16.396-46.155-10.827
						c-13.664,4.546-23.707,14.98-28.255,27.544c-4.203,11.612-13.426,20.698-25.175,24.502l-0.005,0.002
						c-11.842,3.834-24.715,1.977-35.18-4.763c-11.117-7.159-25.256-9.404-38.78-4.905c-24.728,8.226-37.616,35.736-27.511,60.255
						c8.559,20.767,31.563,32.172,53.278,26.428c12.989-3.436,23.028-12.052,28.666-22.936c5.277-10.187,17.25-23.609,27.025-29.615
						l0.096-0.059c9.905-6.086,22.684-5.593,31.741,1.695c12.208,9.823,29.245,13.098,45.115,6.809
						c1.184-0.469,2.335-0.992,3.459-1.552c-0.611,16.245,3.402,32.842,12.551,47.733c24.995,40.681,78.646,52.991,118.953,26.9
						C800.543,573.695,812.655,522.983,789.897,483.91z"/>
					<circle style="fill:#E7B12A;" cx="571.196" cy="544.641" r="43.594"/>
				</g>
			</g>
		</g>
		<g>
			<path style="fill:#EBC134;" d="M383.44,439.182c-7.231,0.816-7.893,1.477-8.708,8.708c-0.816-7.232-1.477-7.893-8.709-8.708
				c7.232-0.816,7.893-1.477,8.709-8.709C375.548,437.705,376.209,438.366,383.44,439.182z"/>
			<path style="fill:#EBC134;" d="M94.061,292.323c-7.231,0.816-7.893,1.477-8.708,8.708c-0.816-7.232-1.477-7.893-8.709-8.708
				c7.232-0.816,7.893-1.477,8.709-8.709C86.169,290.846,86.83,291.507,94.061,292.323z"/>
			<path style="fill:#EBC134;" d="M860.81,443.656c-4.817,0.543-5.258,0.984-5.801,5.801c-0.544-4.818-0.984-5.258-5.802-5.801
				c4.818-0.543,5.258-0.984,5.802-5.801C855.552,442.672,855.992,443.113,860.81,443.656z"/>
			<path style="fill:#EBC134;" d="M1013.717,42.396c-4.817,0.543-5.258,0.984-5.801,5.801c-0.544-4.818-0.984-5.258-5.802-5.801
				c4.818-0.543,5.258-0.984,5.802-5.801C1008.459,41.411,1008.9,41.852,1013.717,42.396z"/>
			<path style="fill:#EBC134;" d="M855.008,74.285c-4.817,0.543-5.258,0.984-5.801,5.801c-0.544-4.818-0.984-5.258-5.802-5.801
				c4.818-0.543,5.258-0.984,5.802-5.801C849.75,73.301,850.191,73.742,855.008,74.285z"/>
			<path style="fill:#EBC134;" d="M569.862,194.897c-4.817,0.543-5.258,0.984-5.801,5.801c-0.543-4.818-0.984-5.258-5.802-5.801
				c4.818-0.544,5.258-0.984,5.802-5.801C564.604,193.913,565.045,194.353,569.862,194.897z"/>
			<path style="fill:#EBC134;" d="M648.658,300.361c-4.817,0.543-5.258,0.984-5.801,5.801c-0.543-4.818-0.984-5.258-5.802-5.801
				c4.818-0.544,5.258-0.984,5.802-5.802C643.4,299.377,643.841,299.818,648.658,300.361z"/>
			<path style="fill:#EBC134;" d="M140.977,30.181c-4.817,0.543-5.258,0.984-5.801,5.801c-0.543-4.817-0.984-5.258-5.801-5.801
				c4.818-0.544,5.258-0.984,5.801-5.802C135.719,29.197,136.159,29.638,140.977,30.181z"/>
			<path style="fill:#EBC134;" d="M963.47,455.259c-9.634,1.086-10.515,1.967-11.602,11.602
				c-1.087-9.635-1.968-10.516-11.603-11.602c9.635-1.087,10.516-1.968,11.603-11.603
				C952.955,453.291,953.836,454.172,963.47,455.259z"/>
			<path style="fill:#EBC134;" d="M656.799,126.884c-9.634,1.086-10.515,1.967-11.602,11.602
				c-1.087-9.635-1.968-10.516-11.603-11.602c9.635-1.087,10.516-1.968,11.603-11.603
				C646.284,124.917,647.165,125.797,656.799,126.884z"/>
			<path style="fill:#EBC134;" d="M543.626,179.268c-7.371,0.831-8.045,1.505-8.876,8.877c-0.832-7.371-1.506-8.045-8.877-8.877
				c7.372-0.832,8.045-1.506,8.877-8.877C535.581,177.762,536.255,178.436,543.626,179.268z"/>
			<path style="fill:#EBC134;" d="M76.645,57.944c-7.371,0.831-8.045,1.505-8.876,8.876c-0.832-7.371-1.506-8.045-8.877-8.876
				c7.372-0.832,8.045-1.506,8.877-8.877C68.6,56.438,69.273,57.112,76.645,57.944z"/>
		</g>
		<path style="fill:#1F417C;" d="M112.854,393.667H60.541c-6.515,0-11.796-5.281-11.796-11.796v0
			c0-6.515,5.281-11.796,11.796-11.796h52.313c6.515,0,11.796,5.281,11.796,11.796v0
			C124.65,388.385,119.369,393.667,112.854,393.667z"/>
		<g>
			<g>
				<g>
					<g>
						<path style="fill:#DC8B40;" d="M490.767,73.192c6.887-5.526,11.888-8.243,23.134-22.73c0.025-0.031,0.049-0.062,0.073-0.097
							c-0.012,0.04-0.023,0.079-0.034,0.117c-5.353,17.54-4.69,23.193-5.235,32.006c-0.548,8.853-8.275,15.966-8.275,15.966
							l-9.299-3.963l-0.039-0.02l-8.599-5.313C482.492,89.158,483.849,78.743,490.767,73.192z"/>
						<path style="fill:#EBC134;" d="M506.461,64.861c-0.959,5.425-1.123,9.349-1.293,13.398c-0.056,1.318-0.113,2.68-0.2,4.094
							c-0.288,4.648-4.739,11.546-6.698,13.889l-6.081-3.151l-6.251-3.24c0.781-2.948,3.446-10.761,7.091-13.685
							c1.104-0.886,2.185-1.718,3.229-2.523C499.47,71.169,502.581,68.773,506.461,64.861z"/>
						<path style="fill:#F7F6A9;" d="M502.192,73.099c-0.275,2.109-0.478,4.074-0.678,6.011l-0.002,0.024
							c-0.154,1.485-0.312,3.02-0.502,4.595c-0.359,2.964-2.958,7.88-5.133,11.273l-7.605-3.942
							c1.524-4.106,3.845-8.993,5.917-10.866c1.179-1.065,2.344-2.082,3.471-3.065l0.014-0.012
							C499.14,75.836,500.628,74.539,502.192,73.099z"/>
					</g>
					<g>
						<path style="fill:#DD4D4D;" d="M497.857,121.969c1.84-0.378,3.638-1.218,5.357-2.353c8.517-5.621,15.083-18.495,15.083-18.495
							s0.001,0.001,0.003,0.004c0.2,0.185,8.386,7.904,5.439,21.984c-1.547,7.387-6.223,12.894-10.371,16.485
							c-0.755,0.652-1.654,0.661-2.36,0.295c-0.513-0.266-0.923-0.731-1.1-1.289c-0.154-0.489-0.13-1.05,0.163-1.613l-12.593,8.294
							l-9.429,6.21c-0.003,0.002-0.003,0.004-0.003,0.004C489.471,138.246,497.857,121.969,497.857,121.969z"/>
						<path style="fill:#B92C3D;" d="M518.299,101.125c0.2,0.185,8.386,7.904,5.439,21.984c-1.547,7.387-6.223,12.894-10.371,16.485
							c-0.755,0.652-1.654,0.661-2.36,0.295c-0.513-0.266-0.923-0.731-1.1-1.289c0.042-0.514,0.096-1.052,0.163-1.613
							c0,0,8.533-8.34,10.151-19.586C521.813,106.331,518.406,101.28,518.299,101.125z"/>
						<path style="fill:#B92C3D;" d="M497.857,121.969c1.84-0.378,3.638-1.218,5.357-2.353c0.173,9.118-2.711,18.457-5.737,25.665
							l-9.429,6.21c-0.003,0.002-0.003,0.004-0.003,0.004C489.471,138.246,497.857,121.969,497.857,121.969z"/>
					</g>
					<g>
						<path style="fill:#DD4D4D;" d="M464.762,104.817c-0.752-1.721-1.102-3.675-1.166-5.734c-0.317-10.2,6.417-22.986,6.417-22.986
							s-0.001-0.001-0.005-0.001c-0.266-0.057-11.293-2.296-21.099,8.231c-5.144,5.523-6.947,12.518-7.49,17.978
							c-0.098,0.992,0.413,1.732,1.119,2.099c0.513,0.266,1.129,0.333,1.688,0.156c0.488-0.156,0.932-0.499,1.224-1.063
							l0.483,15.071l0.361,11.285c0,0.003-0.001,0.005-0.001,0.005C456.297,121.053,464.762,104.817,464.762,104.817z"/>
						<path style="fill:#B92C3D;" d="M470.007,76.096c-0.266-0.057-11.293-2.296-21.099,8.231
							c-5.144,5.523-6.947,12.518-7.49,17.978c-0.098,0.992,0.413,1.732,1.119,2.099c0.513,0.266,1.129,0.333,1.688,0.156
							c0.395-0.33,0.804-0.685,1.224-1.063c0,0,1.895-11.78,10.151-19.586C463.728,76.226,469.819,76.099,470.007,76.096z"/>
						<path style="fill:#B92C3D;" d="M464.762,104.817c-0.752-1.721-1.102-3.675-1.166-5.734
							c-7.551,5.115-13.517,12.856-17.662,19.484l0.361,11.285c0,0.003-0.001,0.005-0.001,0.005
							C456.297,121.053,464.762,104.817,464.762,104.817z"/>
					</g>
					<path style="fill:#FFFFFF;" d="M447.058,128.621c2.141-4.132,3.921-7.388,5.934-10.429c2.014-3.037,4.259-5.856,7.332-9.113
						c0.097-0.105,0.198-0.206,0.303-0.302l5.281-4.894l5.835-5.407l11.1-10.289l18.274,9.471l-0.229,1.703l-1.779,13.298
						l-1.054,7.885c-1.308,9.951-4.31,19.775-8.945,28.884c-0.132,0.258-0.266,0.52-0.401,0.78
						c-6.446,12.437-13.957,21.468-21.145,27.994c-0.512,0.465-1.023,0.917-1.531,1.357c-1.22,1.055-2.428,2.038-3.616,2.955
						c-0.513,0.396-1.02,0.779-1.524,1.148c-0.257,0.189-0.512,0.375-0.767,0.557c-3.265,2.342-6.345,4.176-9.08,5.6
						c-3.197,1.666-5.924,2.776-7.937,3.489c-2.201,0.78-4.349-0.333-4.98-2.581c-1.074-3.815-2.449-10.433-2.384-19.144
						c0.002-0.344,0.008-0.692,0.015-1.042c0.012-0.622,0.032-1.254,0.06-1.898c0.066-1.496,0.175-3.047,0.336-4.65
						c0.064-0.649,0.137-1.307,0.22-1.974C437.567,152.388,440.616,141.049,447.058,128.621z"/>
					<path style="fill:#203857;" d="M477.04,93.567l5.804-5.38c0.898,0.193,1.78,0.41,2.647,0.65
						c0.733,0.204,1.456,0.426,2.167,0.667c2.533,0.854,4.914,1.934,7.132,3.259c2.286,1.364,4.4,2.99,6.328,4.895l-1.05,7.844
						c-2.548-2.291-5.248-4.29-8.1-5.994c-3.366-2.012-6.944-3.615-10.736-4.808c-0.631-0.199-1.268-0.386-1.911-0.562
						C478.569,93.931,477.807,93.742,477.04,93.567z"/>
					<path style="opacity:0.2;" d="M494.789,92.763c2.286,1.364,4.4,2.99,6.328,4.895l-1.05,7.844l-0.957,7.158l-1.054,7.885
						c-1.308,9.951-4.31,19.775-8.945,28.884c-0.132,0.258-0.266,0.52-0.401,0.78c-8.723,16.83-19.397,27.425-28.583,34.01
						c-3.265,2.342-6.345,4.176-9.08,5.6c-1.263-2.454-2.454-2.412-0.554-7.724c0,0,26.771-16.934,34.876-41.901
						c7.424-22.872-1.469-21.413-1.469-21.413l8.067-19.274L494.789,92.763z"/>
					<g>
						<path style="fill:#DD4D4D;" d="M495.616,83.448c0.417-0.365,0.949-0.382,1.362-0.168c0.413,0.214,0.706,0.658,0.648,1.209
							c-2.236,20.472-21.111,46.24-29.198,56.461c-0.414,0.523-1.036,0.57-1.508,0.326c-0.471-0.244-0.792-0.781-0.603-1.42
							C470.005,127.356,480.178,97.078,495.616,83.448z"/>
						<path style="fill:#B92C3D;" d="M466.919,141.277l30.059-57.996c0.413,0.214,0.706,0.658,0.648,1.209
							c-2.236,20.472-21.111,46.24-29.198,56.461C468.013,141.474,467.391,141.521,466.919,141.277z"/>
					</g>
					<g>
						<g>
							<path style="fill:#203857;" d="M448.777,151.245c2.928-5.649,9.881-7.855,15.53-4.927c5.649,2.928,7.855,9.881,4.927,15.53
								c-2.927,5.649-9.88,7.855-15.53,4.927C448.055,163.847,445.849,156.894,448.777,151.245z"/>
							<path style="fill:#78D4DF;" d="M450.916,152.353c0.018-0.035,0.037-0.072,0.057-0.106c2.324-4.346,7.711-6.057,12.118-3.845
								c0.036,0.017,0.073,0.036,0.108,0.054c0.761,0.394,1.443,0.881,2.039,1.44c1.084,1.017,1.885,2.272,2.362,3.635
								c0.409,1.17,0.584,2.419,0.493,3.671c-0.085,1.2-0.41,2.402-0.997,3.536c-2.312,4.461-7.821,6.209-12.282,3.897
								c-1.134-0.587-2.093-1.383-2.854-2.314c-0.796-0.971-1.375-2.093-1.713-3.284c-0.396-1.39-0.465-2.877-0.166-4.333
								C450.245,153.904,450.522,153.114,450.916,152.353z"/>
							<path style="opacity:0.1;" d="M450.081,154.705c-0.299,1.456-0.231,2.943,0.166,4.333c0.338,1.191,0.918,2.313,1.713,3.284
								c0.76,0.931,1.72,1.727,2.854,2.314c4.461,2.312,9.97,0.564,12.282-3.897c0.116-0.223,0.22-0.448,0.314-0.674
								c-2.492,3.971-7.672,5.436-11.907,3.241c-1.134-0.588-2.093-1.383-2.853-2.314c-0.796-0.97-1.375-2.093-1.713-3.284
								c-0.396-1.389-0.465-2.877-0.166-4.332c0.117-0.566,0.289-1.126,0.521-1.674c-0.113,0.176-0.218,0.36-0.318,0.546
								c-0.02,0.034-0.039,0.071-0.057,0.106C450.522,153.114,450.245,153.904,450.081,154.705z"/>
						</g>
						
							<linearGradient id="SVGID_00000061463812381876411380000001931174965614282638_" gradientUnits="userSpaceOnUse" x1="1547.4529" y1="164.7153" x2="1540.7343" y2="196.7405" gradientTransform="matrix(-0.6506 -0.7595 0.7595 -0.6506 1325.1685 1443.5046)">
							<stop  offset="0" style="stop-color:#FFFFFF"/>
							<stop  offset="1" style="stop-color:#FFFFFF;stop-opacity:0"/>
						</linearGradient>
						<path style="fill:url(#SVGID_00000061463812381876411380000001931174965614282638_);" d="M453.695,160.54
							c0,0-1.555-4.965,1.38-8.215c3.214-3.558,7.069-2.439,10.237,0.542c0,0-1.4-3.999-6.588-4.233
							C453.311,148.391,450.029,154.978,453.695,160.54z"/>
					</g>
					<g>
						<path style="fill:#DD4D4D;" d="M435.747,171.583c8.859,2.799,16.986,7.011,24.381,12.636
							c-7.081,5.076-13.28,7.767-17.017,9.089c-1.342,0.476-2.662,0.247-3.633-0.512c-0.623-0.487-1.1-1.192-1.347-2.069
							C437.057,186.912,435.682,180.295,435.747,171.583z"/>
						<path style="opacity:0.3;fill:#FFFFFF;" d="M438.523,185.63c0.14,0.756,0.161,1.293,0.342,2.476
							c0.282,1.844,0.821,2.498,2.026,2.144c2.193-0.644,2.009-10.313-1.401-12.985C436.838,175.188,437.914,182.346,438.523,185.63
							z"/>
						<path style="fill:#B92C3D;" d="M435.747,171.583c8.859,2.799,16.986,7.011,24.381,12.636
							c-7.081,5.076-13.28,7.767-17.017,9.089c-1.342,0.476-2.662,0.247-3.633-0.512c0.779-0.196,6.342-1.728,8.492-5.876
							C450.285,182.454,446.551,175.573,435.747,171.583z"/>
					</g>
				</g>
			</g>
			<g>
				<polygon style="fill:#E3EAF4;" points="333.776,306.398 354.315,304.015 422.215,331.276 427.383,342.549 439.526,336.712 
					512.626,357.758 522.38,369.296 425.899,343.892 				"/>
				<path style="fill:#4479C7;" d="M430.852,349.46c0.261,0.611-0.015,1.313-0.621,1.584c-0.611,0.261-1.313-0.015-1.584-0.621
					l-2.544-5.85l-6.07,3.028c-0.284,0.142-0.618,0.157-0.915,0.058c-0.121-0.041-0.238-0.096-0.34-0.172
					c-35.4-26.574-93.709-34.284-94.292-34.36c-0.649-0.081-1.123-0.687-1.039-1.343c0.084-0.657,0.687-1.123,1.343-1.039
					c0.056,0.01,0.712,0.094,1.878,0.271c10.305,1.553,60.638,10.202,92.951,34.099l4.6-2.293l1.592-0.796l0.345-0.172
					c0.071-0.035,0.147-0.061,0.22-0.078c0.185,0.636,0.286,1.016,0.309,1.125c0.005,0.01,0.01,0.02,0.008,0.028l0.261-1.163
					c0.051,0,0.104,0.018,0.15,0.033c0.309,0.112,0.56,0.347,0.694,0.654L430.852,349.46z"/>
				
					<linearGradient id="SVGID_00000110432667703389009570000013440175029639037579_" gradientUnits="userSpaceOnUse" x1="546.1826" y1="-127.3739" x2="623.2964" y2="-127.3739" gradientTransform="matrix(0.9486 0.3164 -0.3164 0.9486 -194.1261 233.963)">
					<stop  offset="0" style="stop-color:#E5EFFA"/>
					<stop  offset="1" style="stop-color:#C7D2E8"/>
				</linearGradient>
				<path style="fill:url(#SVGID_00000110432667703389009570000013440175029639037579_);" d="M429.887,328.692l-2.932,13.072
					c-0.109-0.028-0.223-0.041-0.335-0.035c-2.469-31.23-43.024-74.088-51.384-82.613c-0.963-0.989-1.498-1.513-1.498-1.513
					l15.676,1.738C389.414,259.341,429.501,294.66,429.887,328.692z"/>
				
					<linearGradient id="SVGID_00000051355777702096081030000015748037125104126127_" gradientUnits="userSpaceOnUse" x1="546.1827" y1="-125.2216" x2="622.9677" y2="-125.2216" gradientTransform="matrix(0.9486 0.3164 -0.3164 0.9486 -194.1261 233.963)">
					<stop  offset="0" style="stop-color:#FAFAFA"/>
					<stop  offset="1" style="stop-color:#DDE6FA"/>
				</linearGradient>
				<path style="fill:url(#SVGID_00000051355777702096081030000015748037125104126127_);" d="M426.62,341.729
					c-0.018,0.002-0.043,0.003-0.071,0.01c-3.818-28.706-41.109-69.216-51.065-79.591c-1.543-1.605-2.43-2.492-2.43-2.492
					l2.182-0.54C383.596,267.641,424.151,310.499,426.62,341.729z"/>
				<path style="fill:#E3EAF4;" d="M426.549,341.739c-0.061,0.005-0.116,0.02-0.172,0.035c-1.378-4.785-7.709-23.98-25.731-46.574
					c-8.238-10.334-18.917-21.381-32.693-32.083l7.365-0.577l0.165-0.393C385.44,272.523,422.732,313.034,426.549,341.739z"/>
				
					<linearGradient id="SVGID_00000068646034901896579540000014293206874779496858_" gradientUnits="userSpaceOnUse" x1="529.906" y1="-115.4317" x2="622.7513" y2="-115.4317" gradientTransform="matrix(0.9486 0.3164 -0.3164 0.9486 -194.1261 233.963)">
					<stop  offset="0" style="stop-color:#FAFAFA"/>
					<stop  offset="1" style="stop-color:#DDE6FA"/>
				</linearGradient>
				<path style="fill:url(#SVGID_00000068646034901896579540000014293206874779496858_);" d="M426.377,341.775
					c-0.073,0.018-0.149,0.043-0.22,0.078c-10.481-29.018-63.708-54.981-75.1-60.267l-0.008-0.002
					c-1.376-0.637-2.144-0.969-2.144-0.969l17.182-4.146c8.325,2.472,34.56,18.732,34.56,18.732
					C418.668,317.795,424.999,336.989,426.377,341.775z"/>
				<path style="fill:#E3EAF4;" d="M426.157,341.853l-0.345,0.172c0,0-2.354-4.621-8.19-11.644
					c-9.731-11.711-29.15-30.116-63.517-44.99l-6.886-3.141l3.83-0.666l0.008,0.002
					C362.448,286.872,415.676,312.835,426.157,341.853z"/>
				<path style="fill:#E3EAF4;" d="M420.513,336.38c-1.201-1.769-2.504-3.488-3.905-5.163l1.014-0.836
					c5.836,7.024,8.19,11.644,8.19,11.644l-1.592,0.796c-2.151-2.289-4.394-4.456-6.708-6.487
					c-31.988-28.241-77.223-33.078-77.223-33.078l-3.482-1.846l8.316-3.073C394.703,310.234,419.826,335.678,420.513,336.38z"/>
				
					<linearGradient id="SVGID_00000097473442061354249330000011075172789332636859_" gradientUnits="userSpaceOnUse" x1="518.4305" y1="-95.378" x2="621.0362" y2="-95.378" gradientTransform="matrix(0.9486 0.3164 -0.3164 0.9486 -194.1261 233.963)">
					<stop  offset="0" style="stop-color:#FAFAFA"/>
					<stop  offset="1" style="stop-color:#DDE6FA"/>
				</linearGradient>
				<path style="fill:url(#SVGID_00000097473442061354249330000011075172789332636859_);" d="M418.528,338.126
					c-0.132-0.137-0.603-0.598-1.424-1.328l0.408-0.464c2.314,2.03,4.556,4.197,6.708,6.487l-4.6,2.293
					c-32.313-23.897-82.646-32.546-92.951-34.099l7.107-4.617C333.776,306.398,391.677,315.003,418.528,338.126z"/>
				
					<linearGradient id="SVGID_00000150099633772873718440000003422808637843272090_" gradientUnits="userSpaceOnUse" x1="525.1544" y1="-101.0152" x2="612.6204" y2="-101.0152" gradientTransform="matrix(0.9486 0.3164 -0.3164 0.9486 -194.1261 233.963)">
					<stop  offset="0" style="stop-color:#E5EFFA"/>
					<stop  offset="1" style="stop-color:#C7D2E8"/>
				</linearGradient>
				<path style="fill:url(#SVGID_00000150099633772873718440000003422808637843272090_);" d="M417.512,336.335l-0.408,0.464
					c-5.95-5.237-30.422-24.195-81.184-32.27l4.37-1.271C340.29,303.257,385.524,308.094,417.512,336.335z"/>
				
					<linearGradient id="SVGID_00000109729764749281859220000014353330163883664023_" gradientUnits="userSpaceOnUse" x1="524.5771" y1="-108.0534" x2="615.4818" y2="-108.0534" gradientTransform="matrix(0.9486 0.3164 -0.3164 0.9486 -194.1261 233.963)">
					<stop  offset="0" style="stop-color:#FAFAFA"/>
					<stop  offset="1" style="stop-color:#DDE6FA"/>
				</linearGradient>
				<path style="fill:url(#SVGID_00000109729764749281859220000014353330163883664023_);" d="M416.608,331.217
					c1.401,1.676,2.704,3.394,3.905,5.163c-0.687-0.702-25.81-26.146-75.39-38.043l-6.972-2.325l2.456-0.55l-1.054-0.918
					l10.807-4.185C350.361,290.36,394.712,305.016,416.608,331.217z"/>
				
					<linearGradient id="SVGID_00000124141790130559663200000004012753148399472310_" gradientUnits="userSpaceOnUse" x1="527.3096" y1="-112.8341" x2="610.841" y2="-112.8341" gradientTransform="matrix(0.9486 0.3164 -0.3164 0.9486 -194.1261 233.963)">
					<stop  offset="0" style="stop-color:#E5EFFA"/>
					<stop  offset="1" style="stop-color:#C7D2E8"/>
				</linearGradient>
				<path style="fill:url(#SVGID_00000124141790130559663200000004012753148399472310_);" d="M417.622,330.381l-1.014,0.836
					c-21.896-26.202-66.247-40.857-66.247-40.857l-6.698-2.234l10.442-2.736C388.473,300.265,407.892,318.671,417.622,330.381z"/>
				<path style="fill:#4479C7;" d="M418.889,345.47c-0.575,0.332-0.776,1.059-0.454,1.64c0.332,0.575,1.059,0.776,1.64,0.454
					l5.546-3.152l3.038,6.065c0.142,0.284,0.4,0.497,0.697,0.596c0.122,0.041,0.248,0.066,0.375,0.066
					c44.264-0.007,95.529,28.825,96.041,29.114c0.568,0.324,1.31,0.124,1.637-0.451c0.327-0.575,0.124-1.31-0.451-1.637
					c-0.051-0.025-0.626-0.352-1.665-0.91c-9.174-4.943-54.624-28.237-94.812-28.518l-2.303-4.595l-0.796-1.592l-0.172-0.345
					c-0.035-0.071-0.081-0.137-0.129-0.195c-0.53,0.398-0.839,0.641-0.923,0.715c-0.01,0.005-0.02,0.01-0.023,0.018l0.945-0.732
					c-0.041-0.03-0.55-0.403-0.595-0.418c-0.314-0.096-0.656-0.058-0.948,0.106L418.889,345.47z"/>
				
					<linearGradient id="SVGID_00000079487533351717413940000004201758199662938787_" gradientUnits="userSpaceOnUse" x1="622.9485" y1="-127.377" x2="700.056" y2="-127.377" gradientTransform="matrix(0.9486 0.3164 -0.3164 0.9486 -194.1261 233.963)">
					<stop  offset="0" style="stop-color:#E5EFFA"/>
					<stop  offset="1" style="stop-color:#C7D2E8"/>
				</linearGradient>
				<path style="fill:url(#SVGID_00000079487533351717413940000004201758199662938787_);" d="M432.126,329.439l-5.501,12.215
					c0.104,0.043,0.203,0.101,0.289,0.172c20.72-23.496,78.882-33.433,90.685-35.234c1.364-0.213,2.106-0.311,2.106-0.311
					l-13.581-8.018C506.124,298.263,452.862,302.45,432.126,329.439z"/>
				
					<linearGradient id="SVGID_00000176765638063430532710000018313059891057294995_" gradientUnits="userSpaceOnUse" x1="623.277" y1="-125.2253" x2="700.0562" y2="-125.2253" gradientTransform="matrix(0.9486 0.3164 -0.3164 0.9486 -194.1261 233.963)">
					<stop  offset="0" style="stop-color:#DDE6FA"/>
					<stop  offset="1" style="stop-color:#FAFAFA"/>
				</linearGradient>
				<path style="fill:url(#SVGID_00000176765638063430532710000018313059891057294995_);" d="M426.914,341.827
					c0.013,0.013,0.033,0.028,0.051,0.051c20.283-20.668,74.426-30.687,88.617-33.009c2.197-0.357,3.439-0.534,3.439-0.534
					l-1.422-1.741C505.796,308.393,447.634,318.33,426.914,341.827z"/>
				<path style="fill:#E3EAF4;" d="M426.965,341.878c0.046,0.041,0.081,0.086,0.116,0.132c3.974-3,20.559-14.552,48.535-21.807
					c12.792-3.321,27.963-5.747,45.405-6.038l-5.545-4.882l0.104-0.413C501.39,311.191,447.248,321.209,426.965,341.878z"/>
				
					<linearGradient id="SVGID_00000064355382367611167380000007211986408170505105_" gradientUnits="userSpaceOnUse" x1="623.4935" y1="-115.4355" x2="716.3357" y2="-115.4355" gradientTransform="matrix(0.9486 0.3164 -0.3164 0.9486 -194.1261 233.963)">
					<stop  offset="0" style="stop-color:#DDE6FA"/>
					<stop  offset="1" style="stop-color:#FAFAFA"/>
				</linearGradient>
				<path style="fill:url(#SVGID_00000064355382367611167380000007211986408170505105_);" d="M427.081,342.009
					c0.048,0.058,0.094,0.124,0.129,0.195c25.801-16.919,83.957-5.736,96.241-3.126l0.008,0.003
					c1.483,0.317,2.296,0.512,2.296,0.512l-11.254-13.629c-8.143-3.02-38.885-5.761-38.885-5.761
					C447.64,327.457,431.055,339.009,427.081,342.009z"/>
				<path style="fill:#E3EAF4;" d="M427.21,342.204l0.172,0.345c0,0,4.656-2.283,13.54-4.398c14.812-3.526,41.391-6.591,77.807,2.14
					l7.393,1.621l-2.663-2.831l-0.008-0.003C511.167,336.468,453.011,325.286,427.21,342.204z"/>
				<path style="fill:#E3EAF4;" d="M435.009,341.215c2.023-0.694,4.096-1.287,6.222-1.786l-0.309-1.277
					c-8.884,2.115-13.54,4.398-13.54,4.398l0.796,1.592c3.095-0.539,6.189-0.927,9.258-1.162
					c42.536-3.388,81.619,19.894,81.619,19.894l3.893,0.614l-4.807-7.449C471.346,335.793,435.98,341.065,435.009,341.215z"/>
				
					<linearGradient id="SVGID_00000167382209853681777960000004582904122701666986_" gradientUnits="userSpaceOnUse" x1="625.2089" y1="-95.3809" x2="727.8145" y2="-95.3809" gradientTransform="matrix(0.9486 0.3164 -0.3164 0.9486 -194.1261 233.963)">
					<stop  offset="0" style="stop-color:#DDE6FA"/>
					<stop  offset="1" style="stop-color:#FAFAFA"/>
				</linearGradient>
				<path style="fill:url(#SVGID_00000167382209853681777960000004582904122701666986_);" d="M435.548,343.802
					c0.188-0.03,0.841-0.117,1.936-0.208l-0.048-0.616c-3.069,0.235-6.164,0.623-9.258,1.162l2.303,4.595
					c40.189,0.282,85.638,23.575,94.812,28.518l-2.913-7.959C522.38,369.296,470.904,341.425,435.548,343.802z"/>
				
					<linearGradient id="SVGID_00000025438553338968811720000014779153260082184126_" gradientUnits="userSpaceOnUse" x1="633.6241" y1="-101.0189" x2="721.0898" y2="-101.0189" gradientTransform="matrix(0.9486 0.3164 -0.3164 0.9486 -194.1261 233.963)">
					<stop  offset="0" style="stop-color:#E5EFFA"/>
					<stop  offset="1" style="stop-color:#C7D2E8"/>
				</linearGradient>
				<path style="fill:url(#SVGID_00000025438553338968811720000014779153260082184126_);" d="M437.437,342.979l0.048,0.616
					c7.903-0.617,38.856-1.092,84.303,22.918l-2.732-3.64C519.056,362.873,479.973,339.591,437.437,342.979z"/>
				
					<linearGradient id="SVGID_00000067222811986551583930000007174268439123870849_" gradientUnits="userSpaceOnUse" x1="630.7628" y1="-108.0581" x2="721.6664" y2="-108.0581" gradientTransform="matrix(0.9486 0.3164 -0.3164 0.9486 -194.1261 233.963)">
					<stop  offset="0" style="stop-color:#DDE6FA"/>
					<stop  offset="1" style="stop-color:#FAFAFA"/>
				</linearGradient>
				<path style="fill:url(#SVGID_00000067222811986551583930000007174268439123870849_);" d="M441.231,339.429
					c-2.126,0.499-4.2,1.092-6.222,1.786c0.971-0.149,36.337-5.421,83.133,14.823l6.972,2.325l-1.634-1.914l1.394-0.101
					l-6.132-9.835C518.741,346.513,474.472,331.615,441.231,339.429z"/>
				
					<linearGradient id="SVGID_00000045591282868821505980000008335811501109789854_" gradientUnits="userSpaceOnUse" x1="635.4032" y1="-112.839" x2="718.933" y2="-112.839" gradientTransform="matrix(0.9486 0.3164 -0.3164 0.9486 -194.1261 233.963)">
					<stop  offset="0" style="stop-color:#E5EFFA"/>
					<stop  offset="1" style="stop-color:#C7D2E8"/>
				</linearGradient>
				<path style="fill:url(#SVGID_00000045591282868821505980000008335811501109789854_);" d="M440.922,338.151l0.309,1.277
					c33.24-7.814,77.51,7.085,77.51,7.085l6.698,2.234l-6.71-8.456C482.313,331.56,455.734,334.625,440.922,338.151z"/>
			</g>
			<g id="XMLID_229_">
				
					<ellipse id="XMLID_239_" transform="matrix(0.9996 -0.0298 0.0298 0.9996 -3.2979 4.5911)" style="opacity:0.1;fill:#C6E1F4;" cx="152.405" cy="112.958" rx="56.669" ry="56.669"/>
				<path id="XMLID_238_" style="opacity:0.1;fill:#C6E1F4;" d="M116.091,87.41c14.11-20.056,41.806-24.876,61.862-10.766
					c20.056,14.11,24.876,41.806,10.766,61.862c-14.11,20.056-41.806,24.876-61.862,10.766
					C106.801,135.162,101.981,107.466,116.091,87.41z"/>
				<path id="XMLID_237_" style="opacity:0.1;fill:#C6E1F4;" d="M125.089,93.741c10.614-15.086,31.447-18.712,46.534-8.099
					c15.086,10.614,18.712,31.447,8.099,46.534c-10.613,15.086-31.447,18.712-46.534,8.098
					C118.101,129.661,114.475,108.827,125.089,93.741z"/>
				<g id="XMLID_230_">
					<path id="XMLID_236_" style="fill:#6EB9DF;" d="M133.57,99.707c7.318-10.402,21.683-12.902,32.085-5.584
						c10.402,7.318,12.902,21.683,5.584,32.086s-21.683,12.902-32.085,5.584C128.752,124.475,126.252,110.109,133.57,99.707z"/>
					<path id="XMLID_235_" style="opacity:0.35;fill:#DBE3EA;" d="M155.179,94.934c-0.248,0.472-0.367,1.026-0.338,1.558
						c0.164,3.055,3.544,4.9,5.249,7.081c1.567,2.006,3.643,4.326,5.013,6.463c1.034,1.612,2.413,4.53,4.414,2.306
						c1.51-1.679,1.935-3.572,1.846-5.828c-0.135-3.418-2.67-7.15-5.125-9.489c-2.304-2.194-6.611-4.396-9.869-3.188
						C155.843,94.031,155.439,94.437,155.179,94.934z"/>
					<path id="XMLID_234_" style="opacity:0.35;fill:#DBE3EA;" d="M170.064,118.963c0.499,0.252,1.125,0.137,1.592-0.17
						c0.467-0.307,0.8-0.779,1.077-1.265c0.98-1.719,1.742-4.187,0.689-6.025c-0.212-0.37-0.548-0.743-0.974-0.729
						c-0.33,0.011-0.603,0.254-0.82,0.503c-0.74,0.853-1.721,2.095-2.238,3.101c-0.378,0.735-0.746,1.397-0.594,2.257
						C168.923,117.353,169.372,118.614,170.064,118.963z"/>
					<path id="XMLID_233_" style="fill:#5D9DD2;" d="M168.26,129.659c-6.828,4.439-22.005,2.424-27.923-11.377
						c-6.296-14.683,9.157-28.164,19.159-27.238c-9.354-3.03-19.972,0.201-25.925,8.664c-7.318,10.402-4.818,24.767,5.584,32.085
						C148.286,138.217,160.469,137.071,168.26,129.659z"/>
					<g id="XMLID_231_">
						<path id="XMLID_232_" style="fill:#F4D869;" d="M128.947,111.582c-4.347-3.058-6.275-6.097-5.484-8.902
							c0.851-3.021,4.889-4.408,9.604-3.298l0.633,0.143c-0.597,0.883-1.23,1.822-1.774,2.895c-2.879-0.574-5.079,0.091-5.372,1.131
							c-0.42,1.495,2.855,7.237,22.761,13.79c22.927,7.547,29.313,5.019,29.666,3.989c0.17-0.498-0.862-2.169-4.102-3.317
							c0.26-1.233,0.43-2.3,0.486-3.228l0.345,0.112c4.657,1.65,7.249,4.724,6.31,7.472c-1.782,5.209-14.068,4.489-33.709-1.976
							C139.739,117.571,133.19,114.566,128.947,111.582z"/>
					</g>
				</g>
			</g>
			<g id="XMLID_123_">
				<circle id="XMLID_122_" style="opacity:0.1;fill:#C6E1F4;" cx="631.672" cy="380.408" r="58.125"/>
				<circle id="XMLID_121_" style="opacity:0.1;fill:#C6E1F4;" cx="631.672" cy="380.408" r="45.542"/>
				
					<ellipse id="XMLID_120_" transform="matrix(0.3748 -0.9271 0.9271 0.3748 42.2376 823.451)" style="opacity:0.1;fill:#C6E1F4;" cx="631.672" cy="380.408" rx="34.257" ry="34.257"/>
				<g id="XMLID_82_">
					
						<ellipse id="XMLID_91_" transform="matrix(0.0963 -0.9954 0.9954 0.0963 192.2205 972.5249)" style="fill:#D2714C;" cx="631.672" cy="380.408" rx="23.621" ry="23.621"/>
					<path id="XMLID_102_" style="opacity:0.15;fill:#F9EBB2;" d="M623.361,363.651c0.071,0.542,0.298,1.077,0.636,1.507
						c1.94,2.466,5.865,2.018,8.582,2.843c2.498,0.758,5.609,1.479,8.02,2.463c1.819,0.742,4.698,2.376,5.064-0.671
						c0.276-2.3-0.485-4.139-1.891-5.978c-2.13-2.787-6.459-4.423-9.9-4.936c-3.228-0.481-8.14,0.214-10.16,3.15
						C623.386,362.502,623.287,363.08,623.361,363.651z"/>
					<path id="XMLID_104_" style="opacity:0.15;fill:#F9EBB2;" d="M650.03,375.023c0.567-0.084,1.025-0.549,1.235-1.082
						c0.211-0.533,0.212-1.126,0.158-1.697c-0.193-2.021-1.01-4.54-2.978-5.461c-0.397-0.186-0.898-0.3-1.248-0.036
						c-0.27,0.204-0.356,0.569-0.391,0.906c-0.118,1.152-0.207,2.773-0.047,3.922c0.117,0.84,0.198,1.613,0.834,2.245
						C648.122,374.346,649.244,375.139,650.03,375.023z"/>
					<path id="XMLID_117_" style="fill:#CD5A44;" d="M654.829,385.061c-3.108,7.753-17.029,15.02-30.139,6.935
						c-13.948-8.602-8.94-29.031-0.004-34.157c-9.635,2.979-16.635,11.956-16.635,22.569c0,13.045,10.575,23.621,23.621,23.621
						C643.124,404.029,652.667,395.877,654.829,385.061z"/>
					<g id="XMLID_97_">
						<path id="XMLID_103_" style="fill:#F4D869;" d="M611.181,393.099c-5.452,0-8.862-1.411-9.854-4.232
							c-1.069-3.036,1.5-6.583,6.11-8.434l0.615-0.254c0.02,1.094,0.044,2.255,0.22,3.475c-2.754,1.217-4.207,3.074-3.839,4.119
							c0.53,1.502,6.666,4.386,27.232-1.865c23.688-7.2,27.553-13.09,27.241-14.162c-0.151-0.518-2.004-1.31-5.399-0.361
							c-0.51-1.187-0.997-2.183-1.497-2.995l0.355-0.109c4.88-1.364,8.87-0.315,9.703,2.544c1.58,5.422-9.152,12.069-29.444,18.237
							C623.769,391.753,616.502,393.098,611.181,393.099z"/>
					</g>
				</g>
			</g>
			<g>
				<g>
					<path style="fill:#FFFFFF;" d="M217.782,315.711c2.698-3.098,5.217-7.593,7.094-12.656c1.877-5.063,2.895-10.114,2.869-14.222
						c-0.029-4.408-1.288-7.296-3.547-8.133c-2.258-0.837-5.096,0.533-7.991,3.857c-2.698,3.098-5.217,7.593-7.094,12.656
						c-1.877,5.063-2.895,10.114-2.869,14.222c0.029,4.408,1.288,7.296,3.547,8.134
						C212.049,320.405,214.887,319.035,217.782,315.711z M223.161,302.419c-3.871,10.442-9.818,16.514-12.735,15.433
						c-2.917-1.081-3.469-9.563,0.401-20.005c3.871-10.442,9.818-16.514,12.735-15.433
						C226.479,283.496,227.032,291.977,223.161,302.419z"/>
					<path style="fill:#DC8B40;" d="M203.335,307.663c3.967,1.069,9.111,1.365,14.484,0.835c5.374-0.53,10.36-1.826,14.042-3.649
						c3.95-1.956,5.995-4.354,5.759-6.75c-0.236-2.397-2.711-4.349-6.966-5.495c-3.967-1.069-9.111-1.366-14.484-0.835
						c-5.374,0.53-10.36,1.826-14.042,3.649c-3.95,1.956-5.995,4.354-5.759,6.75c0.201,2.041,2.025,3.759,5.19,4.932
						C202.11,307.305,202.703,307.493,203.335,307.663z M235.8,298.279c0.154,1.563-1.577,3.36-4.75,4.932
						c-3.488,1.728-8.251,2.959-13.41,3.468c-5.159,0.509-10.07,0.231-13.829-0.781c-3.419-0.922-5.468-2.346-5.623-3.909
						c-0.305-3.096,7.078-7.307,18.16-8.4c5.159-0.509,10.07-0.231,13.829,0.781c0.594,0.16,1.146,0.335,1.655,0.524
						C234.251,295.79,235.673,296.987,235.8,298.279z"/>
					<path style="fill:#78D4DF;" d="M231.311,315.121c1.742-1.664,1.753-4.815,0.033-8.873c-1.604-3.782-4.541-8.015-8.271-11.92
						c-3.73-3.904-7.824-7.032-11.529-8.807c-3.976-1.905-7.124-2.037-8.865-0.374c-1.742,1.664-1.753,4.815-0.032,8.873
						c1.604,3.782,4.541,8.016,8.271,11.92c3.73,3.904,7.824,7.032,11.529,8.807c0.59,0.283,1.162,0.526,1.714,0.731
						C227.325,316.651,229.828,316.537,231.311,315.121z M210.753,287.17c3.511,1.682,7.416,4.672,10.997,8.421
						c3.581,3.749,6.39,7.787,7.91,11.371c1.382,3.26,1.524,5.752,0.388,6.837c-1.136,1.085-3.618,0.829-6.812-0.7
						c-3.511-1.682-7.416-4.673-10.997-8.421c-7.693-8.053-10.547-16.059-8.298-18.207c0.938-0.896,2.796-0.878,5.215,0.019
						C209.665,286.677,210.198,286.904,210.753,287.17z"/>
				</g>
				<path style="fill:#EBC134;" d="M221.258,301.714c-0.872,2.353-3.487,3.554-5.84,2.681c-2.353-0.872-3.554-3.487-2.681-5.84
					c0.872-2.353,3.487-3.554,5.84-2.681C220.93,296.746,222.13,299.361,221.258,301.714z"/>
				<path style="fill:#EBC134;" d="M222.054,283.159c-0.513,1.383-2.049,2.088-3.432,1.576c-1.383-0.513-2.088-2.049-1.576-3.432
					c0.513-1.383,2.049-2.088,3.431-1.576C221.861,280.24,222.566,281.776,222.054,283.159z"/>
				<path style="fill:#EBC134;" d="M233.985,312.488c-0.513,1.383-2.049,2.088-3.432,1.576c-1.383-0.513-2.088-2.049-1.576-3.431
					c0.513-1.383,2.049-2.088,3.432-1.576C233.792,309.569,234.497,311.106,233.985,312.488z"/>
				<path style="fill:#EBC134;" d="M203.626,298.026c-0.512,1.383-2.049,2.088-3.431,1.576c-1.383-0.513-2.088-2.049-1.576-3.431
					c0.512-1.383,2.049-2.088,3.431-1.576C203.433,295.107,204.138,296.643,203.626,298.026z"/>
			</g>
			<g id="XMLID_10_">
				<path id="XMLID_212_" style="fill:#DBE3EA;" d="M316.595,182.56c0,0,0.419-13.507-17.842-20.332
					c-19.318-7.22-39.289-14.287-46.97-29.035c0,0-3.226,11.214,1.69,21.814S316.595,182.56,316.595,182.56z"/>
				<path id="XMLID_206_" style="fill:#DBE3EA;" d="M316.595,182.56c0,0,0.785-11.729,13.689-18.642
					c12.904-6.913,27.037-6.452,32.721-16.284c0,0,1.075,10.293-4.762,16.591C352.405,170.524,316.595,182.56,316.595,182.56z"/>
				<path id="XMLID_74_" style="fill:#EDF1F3;" d="M316.595,182.56c-1.981-7.824-9.586-16.585-28.096-20.639
					c-20.314-4.449-39.469-11.276-48.147-24.132c0,0-1.125,3.535,0,7.232c0,0-3.857-2.089-5.142-3.535
					c-1.286-1.446-0.803,3.857-1.286,4.821c-0.482,0.964-3.375,0-4.018,1.286s-3.618,6.093-3.618,6.093l27.879,51.92l76.663,6.079
					l40.545-45.2c0,0-2.592-0.445-2.302-1.501c0.803-2.929-1.768-2.929-2.25-4.214c-0.482-1.286,0.643-3.857,0.964-5.464
					c0,0-3.053,3.696-9.964,5.946c-6.91,2.25-18.252,2.662-25.914,5.868C323.835,170.499,319.351,175.406,316.595,182.56z"/>
				<path id="XMLID_37_" style="fill:#CCD8E0;" d="M298.753,184.185c-2.96-0.065-6.082,6.655-6.082,6.655s7.351,5.065,22.489,4.949
					c15.138-0.115,21.06-8.322,21.06-8.322s3.915-3.397-1.784-2.591c-5.699,0.806-6.778,1.527-19.276,1.245
					C302.663,185.838,298.753,184.185,298.753,184.185z"/>
				<path id="XMLID_36_" style="fill:#8DB759;" d="M338.762,187.993l-45.639,62.824c-0.435,0.598-1.035,1.053-1.732,1.301
					c-2.265,0.808-7.871,2.435-15.301,1.978c-6.783-0.417-11.467-2.934-13.701-4.437c-0.883-0.594-1.175-1.753-0.69-2.7
					l30.972-60.438c0.895-1.745,3.199-2.198,4.665-0.895c3.091,2.749,9.276,6.294,20.431,5.932
					c7.475-0.243,13.935-3.004,18.787-5.977C338.104,184.634,339.829,186.523,338.762,187.993z"/>
				<path id="XMLID_35_" style="fill:#78AE53;" d="M294.306,185.068l-3.552-1.706l-31.898,62.326l2.844,1.273l30.972-60.438
					C293.065,185.823,293.595,185.318,294.306,185.068z"/>
				<path id="XMLID_34_" style="opacity:0.2;fill:#2C4A59;" d="M290.628,184.185c-1.32-1.625,1.063-0.374,1.063-0.374
					s-11.076,22.03-12.215,25.783c-0.699,2.305-0.731,4.103-0.731,4.103l-17.046,33.262l-2.844-1.273L290.628,184.185z"/>
				<path id="XMLID_33_" style="fill:#8DB759;" d="M290.002,182.39l-69.475-31.301c-1.345-0.606-2.878,0.336-2.944,1.811
					l-3.253,72.369c-0.044,0.979,0.517,1.885,1.412,2.283l41.573,18.456c0.634,0.281,1.377,0.02,1.695-0.596l31.617-61.226
					C290.972,183.518,290.687,182.699,290.002,182.39z"/>
				<path id="XMLID_32_" style="fill:#7FB255;" d="M338.359,185.639l35.354-20.51c0.969-0.562,1.999,0.629,1.304,1.507
					l-58.104,73.347c-0.715,0.903-1.656,1.601-2.727,2.024l-20.558,8.116l45.134-62.129
					C339.35,187.026,339.095,186.272,338.359,185.639z"/>
				<path id="XMLID_31_" style="fill:#B7CD73;" d="M290.002,182.39l-69.475-31.301c-1.345-0.606-2.878,0.336-2.944,1.81
					l-0.021,0.471v0c0.291-2.782,6.102,0.749,14.86,4.503c10.667,4.573,58.206,26.313,58.206,26.313
					C290.972,183.518,290.687,182.699,290.002,182.39z"/>
				<path id="XMLID_30_" style="fill:#B7CD73;" d="M296.9,187.063c2.588,1.902,6.877,5.906,19.499,5.906
					c12.621,0,18.528-4.773,19.822-5.502c1.294-0.728,2.414-1.659,2.866-0.465c-0.01-1.169-1.322-2.161-2.532-1.419
					c-4.852,2.972-11.312,5.734-18.787,5.977c-11.155,0.362-17.34-3.183-20.431-5.932c-1.466-1.303-3.771-0.851-4.665,0.895
					C293.174,185.82,293.925,184.876,296.9,187.063z"/>
				<path id="XMLID_24_" style="fill:#5EA585;" d="M334.436,184.876c0,0-3.587,0.042-17.841-0.38
					c-14.254-0.422-17.842-0.311-17.842-0.311s4.411,4.986,16.616,5.424C327.574,190.047,334.436,184.876,334.436,184.876z"/>
				<path id="XMLID_23_" style="fill:#E7B12A;" d="M226.289,158.778c0,0-1.163,5.546-6.3,4.061l-3.574,58.538
					c0,0,1.986,0.163,3.068,1.631c1.427,1.937,0.585,3.832,0.585,3.832l34.746,15.307c0,0,1.424-3.662,4.584-2.197l24.272-49.489
					c0,0-4.28-2.517-3.537-7.935L226.289,158.778z"/>
				<path id="XMLID_22_" style="fill:#E7B12A;" d="M342.521,186.421c-0.527,1.895-1.767,2.938-3.435,3.215l-40.254,55.609
					c0,0,2.126-0.172,0.499,1.715l14.782-6.176c0,0,0.432-1.91,2.343-1.514l53.3-67.921c0,0-0.62,0.292-0.698-0.393L342.521,186.421
					z"/>
				<path id="XMLID_21_" style="fill:#E7B12A;" d="M311.597,199.369c-9.043-0.668-17.118-3.329-21.842-7.156l-1.559,3.042
					c5.335,4.059,13.648,6.756,23.154,7.459c1.515,0.112,2.99,0.168,4.427,0.168c5.061,0,9.627-0.701,13.682-2.082l3.975-5.472
					C327.728,198.658,320.41,200.022,311.597,199.369z"/>
				<path id="XMLID_20_" style="fill:#E7B12A;" d="M274.417,246.386c-4.91-0.839-8.569-2.332-10.634-3.492l-1.273,2.484
					c1.662,0.925,3.695,1.741,5.476,2.313c2.678,0.861,7.592,2.101,13.656,2.101c4.206,0,8.967-0.601,13.92-2.333l3.156-4.345
					C289.41,247.626,280.409,247.408,274.417,246.386z"/>
				<path id="XMLID_19_" style="opacity:0.2;fill:#2C4A59;" d="M316.913,239.982l14.022-17.701c0,0-10.495,8.665-8.762,0
					c1.306-6.528,10.208-23.478,14.519-31.441l-43.065,59.281l20.558-8.116C315.257,241.583,316.198,240.885,316.913,239.982z"/>
				<path id="XMLID_18_" style="opacity:0.2;fill:#2C4A59;" d="M279.389,223.113c7.361-14.955,10.702-21.753,18.448-35.345
					l2.889,0.266l0.002-0.006c-1.4-0.794-2.524-1.628-3.392-2.401c-1.466-1.303-3.771-0.851-4.665,0.895l-30.972,60.438
					c-0.485,0.947-0.192,2.106,0.69,2.7c2.233,1.503,6.917,4.019,13.7,4.437c7.43,0.457,13.036-1.17,15.301-1.978
					c0.697-0.249,1.297-0.703,1.732-1.301l18.35-25.26C289.513,255.785,272.029,238.069,279.389,223.113z"/>
				<path id="XMLID_17_" style="opacity:0.2;fill:#2C4A59;" d="M271.756,220.481c-6.256,11.865-25.55,13.268-37.273-2.964
					c-11.722-16.231-17.548-50.2-17.038-61.572l-3.116,69.323c-0.044,0.979,0.517,1.885,1.412,2.283l41.573,18.456
					c0.634,0.281,1.377,0.02,1.695-0.596l12.759-24.708L271.756,220.481z"/>
				<path id="XMLID_16_" style="fill:#DBE3EA;" d="M313.918,182.56c0,0-1.537-8.558-11.23-12.233
					c-9.693-3.675-28.761-7.097-42.318-13.165c-13.557-6.067-20.018-12.142-20.018-12.142c-0.372-1.267-0.534-2.54-0.495-3.819
					c0,0,4.906,5.969,15.083,11.532c10.131,5.538,22.813,8.62,29.454,10.106c6.641,1.485,19.985,4.959,24.525,9.938
					C314.954,179.394,313.918,182.56,313.918,182.56z"/>
				<path id="XMLID_15_" style="fill:#DBE3EA;" d="M310.311,182.56c0,0-1.892-8.288-11.341-10.919
					c-16.013-4.457-25.112-4.487-41.067-11.827c-15.955-7.34-23.091-13.003-23.091-13.003s3.29,5.667,22.405,14.56
					c19.115,8.893,36.177,9.85,42.368,12.212C307.475,176.593,310.311,182.56,310.311,182.56z"/>
				<path id="XMLID_14_" style="fill:#DBE3EA;" d="M303.477,181.735c0,0-3.363-5.186-9.849-6.567
					c-6.487-1.381-25.74-3.457-38.278-11.43c0,0,4.453,4.788,20.361,9.49C291.619,177.929,295.186,175.578,303.477,181.735z"/>
				<path id="XMLID_13_" style="fill:#DBE3EA;" d="M319.685,182.56c1.813-5.157,6.928-11.53,17.46-13.624
					c10.532-2.093,22.133-2.921,28.083-7.565c0,0-2.365,6.24-18.05,8.128C331.492,171.388,324,175.511,319.685,182.56z"/>
				<path id="XMLID_12_" style="fill:#DBE3EA;" d="M361.133,168.253c-4.166,3.509-9.05,4.386-19.053,5.372
					c-10.002,0.987-15.38,5.48-16.145,8.935c0,0,4.306-6.164,14.966-6.773C349.894,175.273,356.034,174.317,361.133,168.253z"/>
				<path id="XMLID_11_" style="fill:#B7CD73;" d="M373.713,165.129l-35.354,20.51c0.335,0.289,0.564,0.604,0.665,0.951l0.004-0.001
					c0,0,23.769-13.665,27.629-15.985c3.281-1.972,5.7-3.359,6.594-3.882c0.904-0.529,1.975-0.973,1.989-0.654l0,0
					C375.284,165.339,374.481,164.683,373.713,165.129z"/>
			</g>
			<g id="XMLID_7_">
				<path id="XMLID_9_" style="fill:#F4F5F6;" d="M277.064,33.71c0,0,14.024-3.856,30.502-3.506
					c16.478,0.351,29.45,4.908,38.215,17.179c8.765,12.271,15.777,22.572,15.777,22.572s-8.765,4.341-27.697,0
					c-18.932-4.341-25.243-10.715-32.956-18.922S285.127,35.463,277.064,33.71z"/>
				<path id="XMLID_8_" style="fill:#C9D5DB;" d="M344.757,71.686c-0.007-0.004-2.664-1.657-5.484-5.596
					c-2.412-3.37-2.442-7.121-2.442-7.121c-11.394,4.68-29.257-1.295-33.586-5.474l0.001,0.003
					c6.797,7.027,13.622,12.561,30.613,16.457C337.966,70.896,341.593,71.429,344.757,71.686z"/>
			</g>
			<g>
				<path style="fill:#78D4DF;" d="M326.264,362.186c0.352-0.006,0.701-0.003,1.05,0.005c0.006,0,0.011,0,0.017,0.003
					c7.133,0.186,13.53,3.427,17.902,8.476c3.64,4.203,5.881,9.661,5.98,15.657c0.034,2.057-0.186,4.056-0.631,5.974
					c-0.143,0.621-0.312,1.237-0.503,1.839c-3.097,9.789-12.176,16.958-23.007,17.136c-2.247,0.037-4.432-0.231-6.51-0.764
					c-1.297-0.331-2.553-0.767-3.76-1.298c-4.454-1.956-8.223-5.201-10.825-9.268c-1.713-2.674-2.921-5.705-3.488-8.96
					c-0.222-1.254-0.345-2.54-0.367-3.851c-0.156-9.469,5.072-17.775,12.859-21.996c0.003,0,0.003-0.003,0.003-0.003l0.003,0
					c1.314-0.714,2.698-1.31,4.143-1.774C321.381,362.635,323.779,362.227,326.264,362.186z"/>
				<path style="fill:#61AAB8;" d="M305.889,391.756c4.28,1.349,7.383,0.162,10.513,0.679c3.131,0.516,4.066,5.61,1.838,8.201
					c-2.228,2.591-5.075,2.07-4.475,4.047c0.6,1.977,3.407,2.291,3.038,4.531c-4.454-1.956-8.223-5.201-10.825-9.268
					c-1.713-2.674-2.921-5.705-3.488-8.96C303.423,391.104,304.56,391.335,305.889,391.756z"/>
				<path style="fill:#61AAB8;" d="M306.363,386.072c0,0,0.889,2.256,2.298,1.665c1.409-0.591,3.391-0.907,3.372-2.042
					c-0.019-1.135-0.033-1.986-0.893-2.54C310.28,382.601,305.484,384.383,306.363,386.072z"/>
				<path style="fill:#61AAB8;" d="M326.264,362.186c0.352-0.006,0.701-0.003,1.05,0.005c0.006,0,0.011,0,0.017,0.003
					c7.133,0.186,13.53,3.427,17.902,8.476c-1.697-0.31-4.526-2.199-6.486-0.174c-3.07,3.173-7.913,2.117-8.787,0.712
					c-0.875-1.405-2.898-3.642-7.164-4.14c-2.517-0.293-3.38-2.198-3.666-3.706C321.381,362.635,323.779,362.227,326.264,362.186z"
					/>
				<path style="fill:#61AAB8;" d="M346.392,386.548c0.065,3.973-6.196,2.94-6.41,7.202c-0.214,4.261,3.792,6.182,6.569,2.446
					c1.05-1.411,2.545-2.829,4.032-3.895c-2.489,10.719-12.012,18.786-23.51,18.975c-2.247,0.037-4.432-0.231-6.51-0.764
					c-0.079-1.214,0.097-3.598,1.99-6.541c2.768-4.303,3.991,1.07,5.056-3.205c1.065-4.275-0.675-6.517,3.832-8.578
					c4.508-2.061,1.014-7.396,5.247-8.885C340.921,381.813,346.327,382.575,346.392,386.548z"/>
				<path style="fill:#61AAB8;" d="M321.183,372.487c0,0,3.661-1.763,4.001,1.637c0.34,3.4-1.604,5.987-3.903,4.322
					c-2.298-1.665-5.396-0.195-7.685-1.293c-2.289-1.098-3.726-2.209-2.331-3.652c1.395-1.442,3.861-6.876,5.889-4.355
					C319.183,371.669,320.336,372.785,321.183,372.487z"/>
				<path style="opacity:0.2;" d="M314.982,365.139c-0.202,0.16-7.148,5.78-5.809,19.184c1.345,13.449,25.348,23.382,40.906,9.817
					c-3.097,9.789-12.176,16.958-23.007,17.136c-2.247,0.037-4.432-0.231-6.51-0.764c-1.297-0.331-2.553-0.767-3.76-1.298
					c-4.454-1.956-8.223-5.201-10.825-9.268c-1.713-2.674-2.921-5.705-3.488-8.96c-0.222-1.254-0.345-2.54-0.367-3.851
					C301.967,377.666,307.195,369.36,314.982,365.139z"/>
				<path style="opacity:0.4;fill:#FFFFFF;" d="M349.737,383.321c-1.662-5.592-7.598-19.453-25.675-19.795
					c-2.112-0.04-3.686,1.616-3.491,3.72l0.011,0.114c0.164,1.764,1.653,3.074,3.425,3.089c4.782,0.039,14.015,1.971,20.073,15.011
					c0.762,1.64,2.778,2.256,4.324,1.318l0,0C349.582,386.064,350.13,384.644,349.737,383.321z"/>
			</g>
		</g>
	</g>
</g>
<g id="TEXTS">
	<g>
		<g>
			<g>
				<g>
					<path style="fill:#1F417C;" d="M894.146,397.675c0,6.106-4.95,11.056-11.056,11.056c-6.106,0-11.056-4.95-11.056-11.056
						c0-6.106,4.95-11.056,11.056-11.056C889.196,386.619,894.146,391.568,894.146,397.675z"/>
					<g id="XMLID_27_">
						<path id="XMLID_4_" style="fill:#FFFFFF;" d="M883.09,393.404c1.39,0,1.555,0.006,2.104,0.031
							c0.508,0.023,0.783,0.108,0.967,0.179c0.243,0.094,0.416,0.207,0.599,0.39c0.182,0.182,0.295,0.355,0.389,0.599
							c0.071,0.184,0.156,0.459,0.18,0.967c0.025,0.55,0.03,0.714,0.03,2.105c0,1.39-0.005,1.555-0.03,2.104
							c-0.024,0.508-0.108,0.784-0.18,0.967c-0.095,0.243-0.207,0.417-0.389,0.599c-0.183,0.182-0.356,0.295-0.599,0.39
							c-0.184,0.071-0.459,0.156-0.967,0.179c-0.549,0.025-0.713,0.03-2.104,0.03c-1.391,0-1.556-0.005-2.105-0.03
							c-0.508-0.023-0.784-0.108-0.967-0.179c-0.243-0.095-0.417-0.208-0.599-0.39c-0.182-0.183-0.295-0.356-0.389-0.599
							c-0.071-0.183-0.156-0.459-0.18-0.967c-0.025-0.549-0.03-0.714-0.03-2.104c0-1.391,0.005-1.555,0.03-2.105
							c0.024-0.508,0.108-0.783,0.18-0.967c0.094-0.243,0.207-0.417,0.389-0.599c0.182-0.182,0.356-0.296,0.599-0.39
							c0.183-0.072,0.459-0.156,0.967-0.179C881.535,393.41,881.699,393.404,883.09,393.404 M883.09,392.466
							c-1.415,0-1.592,0.006-2.148,0.031c-0.554,0.025-0.933,0.114-1.265,0.242c-0.342,0.133-0.632,0.311-0.922,0.601
							c-0.289,0.289-0.467,0.58-0.6,0.923c-0.129,0.332-0.217,0.709-0.243,1.264c-0.025,0.555-0.031,0.733-0.031,2.148
							c0,1.414,0.006,1.591,0.031,2.147c0.026,0.555,0.114,0.933,0.243,1.265c0.133,0.342,0.311,0.633,0.6,0.922
							c0.29,0.289,0.58,0.467,0.922,0.601c0.332,0.128,0.71,0.216,1.265,0.242c0.556,0.025,0.733,0.032,2.148,0.032
							c1.414,0,1.592-0.006,2.147-0.032c0.555-0.025,0.933-0.113,1.264-0.242c0.342-0.133,0.632-0.311,0.922-0.601
							c0.29-0.29,0.468-0.58,0.601-0.922c0.129-0.332,0.217-0.71,0.242-1.265c0.025-0.556,0.031-0.733,0.031-2.147
							c0-1.415-0.006-1.592-0.031-2.148c-0.025-0.555-0.113-0.933-0.242-1.264c-0.133-0.343-0.312-0.633-0.601-0.923
							c-0.289-0.29-0.58-0.468-0.922-0.601c-0.331-0.128-0.71-0.217-1.264-0.242C884.682,392.472,884.504,392.466,883.09,392.466"/>
						<path id="XMLID_29_" style="fill:#FFFFFF;" d="M883.09,395c-1.477,0-2.674,1.197-2.674,2.675c0,1.476,1.197,2.674,2.674,2.674
							c1.477,0,2.674-1.197,2.674-2.674C885.764,396.197,884.567,395,883.09,395 M883.09,399.41c-0.959,0-1.736-0.777-1.736-1.735
							c0-0.959,0.777-1.736,1.736-1.736c0.959,0,1.736,0.777,1.736,1.736C884.826,398.633,884.049,399.41,883.09,399.41"/>
						<path id="XMLID_28_" style="fill:#FFFFFF;" d="M886.495,394.894c0,0.345-0.28,0.624-0.625,0.624
							c-0.346,0-0.625-0.28-0.625-0.624c0-0.346,0.279-0.625,0.625-0.625C886.215,394.269,886.495,394.549,886.495,394.894"/>
					</g>
				</g>
			</g>
			<g>
				<g>
					<path style="fill:#1F417C;" d="M923.142,397.787c0,6.105-4.95,11.055-11.056,11.055c-6.106,0-11.055-4.95-11.055-11.055
						c0-6.107,4.95-11.056,11.055-11.056C918.192,386.731,923.142,391.681,923.142,397.787z"/>
					<path id="XMLID_26_" style="fill:#FFFFFF;" d="M910.707,403.256h2.203v-5.515h1.536l0.164-1.847h-1.7c0,0,0-0.689,0-1.052
						c0-0.435,0.087-0.607,0.508-0.607c0.339,0,1.192,0,1.192,0v-1.916c0,0-1.256,0-1.525,0c-1.638,0-2.378,0.722-2.378,2.103
						c0,1.203,0,1.472,0,1.472h-1.145v1.87h1.145V403.256z"/>
				</g>
			</g>
			<g>
				<g>
					<path style="fill:#1F417C;" d="M951.868,397.674c0,6.106-4.95,11.055-11.055,11.055c-6.105,0-11.056-4.95-11.056-11.055
						c0-6.107,4.95-11.056,11.056-11.056C946.918,386.618,951.868,391.568,951.868,397.674z"/>
					<g id="XMLID_3_">
						<path id="XMLID_25_" style="fill:#FFFFFF;" d="M935.509,401.006c0.963,0.617,2.107,0.978,3.335,0.978
							c4.041,0,6.323-3.412,6.186-6.473c0.425-0.307,0.794-0.69,1.086-1.126c-0.39,0.174-0.81,0.291-1.25,0.343
							c0.449-0.269,0.794-0.695,0.957-1.203c-0.421,0.249-0.887,0.43-1.382,0.528c-0.397-0.423-0.963-0.687-1.589-0.687
							c-1.404,0-2.436,1.31-2.119,2.672c-1.809-0.091-3.412-0.957-4.485-2.274c-0.57,0.978-0.295,2.258,0.674,2.905
							c-0.357-0.011-0.693-0.109-0.987-0.272c-0.023,1.009,0.699,1.951,1.745,2.162c-0.306,0.083-0.641,0.102-0.982,0.037
							c0.276,0.865,1.08,1.494,2.033,1.511C937.816,400.822,936.663,401.142,935.509,401.006z"/>
					</g>
				</g>
			</g>
			<g>
				<g>
					<path style="fill:#1F417C;" d="M981.855,397.787c0,6.105-4.95,11.055-11.056,11.055c-6.105,0-11.056-4.95-11.056-11.055
						c0-6.107,4.95-11.056,11.056-11.056C976.905,386.731,981.855,391.681,981.855,397.787z"/>
					<g id="XMLID_1786_">
						<path id="XMLID_1788_" style="fill-rule:evenodd;clip-rule:evenodd;fill:#FFFFFF;" d="M976.119,397.531
							c-0.072-2.865-2.432-5.164-5.337-5.164c-2.87,0-5.21,2.247-5.335,5.067c-0.003,0.077-0.005,0.155-0.005,0.232
							c0,1.002,0.281,1.937,0.765,2.737l-0.963,2.842l2.958-0.94c0.765,0.419,1.645,0.66,2.58,0.66c2.949,0,5.339-2.372,5.339-5.3
							C976.121,397.622,976.121,397.577,976.119,397.531z M970.782,402.121c-0.912,0-1.761-0.27-2.47-0.738l-1.725,0.55l0.56-1.655
							c-0.538-0.735-0.855-1.637-0.855-2.612c0-0.145,0.007-0.29,0.023-0.432c0.219-2.255,2.14-4.022,4.467-4.022
							c2.357,0,4.294,1.813,4.474,4.107c0.01,0.115,0.016,0.23,0.016,0.348C975.272,400.124,973.257,402.121,970.782,402.121z"/>
						<path id="XMLID_1787_" style="fill-rule:evenodd;clip-rule:evenodd;fill:#FFFFFF;" d="M973.229,398.736
							c-0.133-0.065-0.775-0.38-0.895-0.423c-0.12-0.045-0.207-0.064-0.294,0.065c-0.088,0.13-0.341,0.423-0.415,0.508
							c-0.077,0.087-0.153,0.097-0.285,0.033c-0.13-0.065-0.553-0.2-1.053-0.645c-0.388-0.342-0.652-0.767-0.727-0.897
							c-0.076-0.129-0.007-0.2,0.057-0.265c0.061-0.059,0.13-0.152,0.198-0.227c0.018-0.022,0.033-0.042,0.048-0.062
							c0.03-0.048,0.053-0.093,0.082-0.155c0.045-0.087,0.023-0.162-0.01-0.228c-0.032-0.065-0.295-0.705-0.405-0.965
							c-0.107-0.26-0.217-0.215-0.295-0.215c-0.076,0-0.163-0.012-0.25-0.012c-0.087,0-0.23,0.032-0.35,0.162
							c-0.12,0.13-0.457,0.445-0.457,1.085c0,0.15,0.028,0.3,0.068,0.443c0.133,0.457,0.418,0.834,0.467,0.899
							c0.065,0.085,0.905,1.44,2.235,1.963c1.332,0.518,1.332,0.345,1.572,0.322c0.24-0.02,0.775-0.313,0.883-0.618
							c0.11-0.302,0.11-0.562,0.078-0.617C973.446,398.835,973.359,398.802,973.229,398.736z"/>
					</g>
				</g>
			</g>
		</g>
		<g>
			<text transform="matrix(1 0 0 1 680.7118 160.9447)"><tspan x="0" y="0" style="fill:#1F417C; font-family:'RumRaisin-Regular'; font-size:72.3042px;">STUDY AT</tspan><tspan x="-161.091" y="69.931" style="fill:#1F417C; font-family:'RumRaisin-Regular'; font-size:72.3042px;">OUR ACADEMY</tspan></text>
		</g>
		<g>
			<text transform="matrix(1 0 0 1 743.4784 278.1479)" style="fill:#E7B12A; font-family:'Poppins-Bold'; font-size:35.9237px;">SPECIAL SALE</text>
		</g>
		<text transform="matrix(1 0 0 1 714.579 401.9438)" style="fill:#1F417C; font-family:'Poppins-Medium'; font-size:12.0525px;">www.yourwebsite.com</text>
		<g>
			<rect x="686.292" y="303.99" style="fill:none;" width="295.564" height="50.076"/>
			<text transform="matrix(1 0 0 1 700.8046 311.9184)"><tspan x="0" y="0" style="fill:#1F417C; font-family:'Poppins-Regular'; font-size:10.7133px;">Lorem ipsum dolor sit amet, consectetuer adipiscing </tspan><tspan x="11.345" y="18.748" style="fill:#1F417C; font-family:'Poppins-Regular'; font-size:10.7133px;">elit, sed diam nonummy nibh euismod tincidunt ut </tspan><tspan x="82.31" y="37.497" style="fill:#1F417C; font-family:'Poppins-Regular'; font-size:10.7133px;">laoreet dolore magna aliquam erat v</tspan></text>
		</g>
	</g>
	<g>
		<g>
			<g>
				<text transform="matrix(1 0 0 1 44.1288 455.2573)" style="fill:#E7B12A; font-family:'Poppins-Bold'; font-size:56.1885px;">50%</text>
			</g>
			<g>
				
					<text transform="matrix(1 0 0 1 175.3456 439.1811)" style="fill:#E7B12A; font-family:'Poppins-Regular'; font-size:18.7483px;">OFF</text>
			</g>
			<g>
				
					<text transform="matrix(1 0 0 1 175.164 455.2573)" style="fill:#E7B12A; font-family:'Poppins-Regular'; font-size:14.5604px;">SCHOLARSHIP</text>
			</g>
		</g>
		<text transform="matrix(1 0 0 1 63.8368 386.2866)" style="fill:#FFFFFF; font-family:'Poppins-Medium'; font-size:12.0525px;">Join Us</text>
	</g>
</g>
</svg>
