<svg xmlns="http://www.w3.org/2000/svg" viewBox="0 0 512 512" id="laptop-education"><path d="M439,115a8,8,0,0,0-8-8H81a8,8,0,0,0-8,8V331a8,8,0,0,0,8,8H431a8,8,0,0,0,8-8ZM423,323H89V123H423Z"></path><path d="M492.312,360H479V112.39A48.576,48.576,0,0,0,430.307,64H81.693A48.576,48.576,0,0,0,33,112.39V360H19.688C15.271,360,12,364,12,368.415V399.61A48.206,48.206,0,0,0,60.259,448H451.741A48.206,48.206,0,0,0,500,399.61V368.415C500,364,496.729,360,492.312,360ZM49,112.39A32.558,32.558,0,0,1,81.693,80H430.307A32.558,32.558,0,0,1,463,112.39V360H315.519a8.21,8.21,0,0,0-5.883,2.785l-8.234,8.827A32.562,32.562,0,0,1,277.452,382h-42.9A32.457,32.457,0,0,1,210.6,371.715l-8.235-9.035a8.1,8.1,0,0,0-5.883-2.68H49ZM484,399.61A32.188,32.188,0,0,1,451.741,432H60.259A32.188,32.188,0,0,1,28,399.61V376H192.976l5.858,6.352A48.7,48.7,0,0,0,234.548,398h42.9a48.7,48.7,0,0,0,35.715-15.648L319.024,376H484Z"></path><path d="M109.578 205.863L130 213.837v54.8a8.063 8.063 0 0 0 5.274 7.5 161.164 161.164 0 0 0 112.382 0 8.127 8.127 0 0 0 5.344-7.5v-54.8l9-3.731V257.3c-5 2.94-9.369 8.848-9.369 15.655a17.737 17.737 0 0 0 17.73 17.642 17.551 17.551 0 0 0 17.511-17.642A17.352 17.352 0 0 0 278 257.2V199.047c0-.138.16-.272.153-.409 0-.1.108-.2.107-.306a7.961 7.961 0 0 0-5.2-7.433l-78.878-29a7.965 7.965 0 0 0-5.508 0l-78.894 29a8 8 0 0 0-.2 14.964zM146 262.972v-8.8a161.9 161.9 0 0 0 91 0v8.8A145.866 145.866 0 0 1 146 262.972zm91-25.561a145.866 145.866 0 0 1-91 0V220.065l42.478 16.5a8.176 8.176 0 0 0 2.935.545 8.749 8.749 0 0 0 3.04-.545L237 220.065zm33.447 37.182a1.642 1.642 0 1 1 1.642-1.642A1.644 1.644 0 0 1 270.447 274.593zm-79-96.663l56.293 20.692-5.513 2.146a7.635 7.635 0 0 0-.729.283L191.447 220.53 141.4 201.051a7.616 7.616 0 0 0-.728-.283l-5.514-2.146zM299.773 223h99.679a8 8 0 0 0 0-16H299.773a8 8 0 0 0 0 16zM299.773 245h99.679a8 8 0 0 0 0-16H299.773a8 8 0 0 0 0 16zM299.773 267h99.679a8 8 0 0 0 0-16H299.773a8 8 0 0 0 0 16zM299.773 201h33.982a8 8 0 0 0 0-16H299.773a8 8 0 0 0 0 16z"></path></svg>