<svg width="48" height="48" viewBox="0 0 48 48" fill="none" xmlns="http://www.w3.org/2000/svg">
<path fill-rule="evenodd" clip-rule="evenodd" d="M23.9003 18.7119C20.7809 16.587 17.0864 13.9132 13.7344 11.5381C14.3753 11.7586 15.0628 11.8076 15.7284 11.6802C16.3941 11.5527 17.0148 11.2532 17.5289 10.8115C18.043 10.3698 18.4325 9.80126 18.6587 9.16235C18.8849 8.52345 18.94 7.83647 18.8184 7.16968C20.2299 10.4054 22.1748 14.8967 23.9376 18.679C22.8817 14.5981 21.5229 9.83901 20.5416 6.41016C20.8748 7.00752 21.3585 7.50723 21.9448 7.85953C22.531 8.21184 23.1993 8.40446 23.8832 8.41823C24.567 8.43199 25.2425 8.26642 25.8424 7.93799C26.4424 7.60956 26.9459 7.12973 27.3028 6.54626C26.2052 10.5502 25.0549 15.013 23.9859 18.6702H24.0034C25.7837 14.8638 27.7198 10.4405 29.1489 7.17408C29.0282 7.84053 29.084 8.52696 29.3106 9.16521C29.5372 9.80347 29.9268 10.3714 30.4408 10.8125C30.9547 11.2536 31.575 11.5527 32.2403 11.68C32.9055 11.8073 33.5924 11.7583 34.2329 11.5381C30.8809 13.9089 27.182 16.587 24.0605 18.7119C24.0612 18.717 24.0612 18.7222 24.0605 18.7272C27.8779 16.9557 32.1936 14.8198 35.3942 13.2393C34.8717 13.6712 34.4715 14.2323 34.2333 14.8668C33.9951 15.5014 33.9272 16.1873 34.0365 16.8562C34.1457 17.5252 34.4282 18.1538 34.8559 18.6797C35.2836 19.2055 35.8415 19.6102 36.4742 19.8534C32.3802 19.5109 27.8208 19.1816 24.0649 18.7975C24.0658 18.8018 24.0658 18.8063 24.0649 18.8107C28.126 19.939 32.8082 21.1134 36.281 21.9805C35.603 21.9701 34.9342 22.1375 34.3411 22.466C33.7479 22.7945 33.2512 23.2727 32.9004 23.8529C32.5495 24.4331 32.3568 25.0951 32.3414 25.773C32.326 26.4509 32.4885 27.1209 32.8126 27.7165C29.9392 24.821 26.6354 21.57 24.032 18.8458C26.3918 22.3054 29.2477 26.2589 31.3199 29.1367C30.8077 28.6924 30.1881 28.3901 29.5227 28.2598C28.8573 28.1295 28.1694 28.1758 27.5274 28.394C26.8855 28.6123 26.3119 28.995 25.8639 29.5039C25.4158 30.0128 25.1089 30.6302 24.9737 31.2946C24.6444 27.1984 24.2273 22.6456 23.9968 18.8787H23.9705C23.74 22.6478 23.3229 27.1984 22.9958 31.2946C22.8586 30.6306 22.5499 30.0142 22.1004 29.5066C21.6509 28.9989 21.0764 28.6178 20.434 28.4012C19.7915 28.1845 19.1035 28.1398 18.4384 28.2716C17.7734 28.4033 17.1544 28.7069 16.643 29.1521C18.7175 26.2742 21.5646 22.3207 23.9244 18.8612C21.3231 21.5766 18.026 24.8342 15.1437 27.7296C15.4678 27.1343 15.6302 26.4644 15.6149 25.7867C15.5996 25.109 15.4071 24.4472 15.0565 23.867C14.706 23.2869 14.2096 22.8087 13.6167 22.48C13.0239 22.1513 12.3553 21.9837 11.6776 21.9937C15.1481 21.1156 19.826 19.9522 23.8849 18.826C23.8846 18.8209 23.8846 18.8158 23.8849 18.8107C20.1311 19.197 15.5762 19.5263 11.4844 19.8665C12.117 19.6233 12.675 19.2187 13.1027 18.6928C13.5303 18.167 13.8129 17.5383 13.9221 16.8694C14.0313 16.2005 13.9635 15.5146 13.7253 14.88C13.4871 14.2454 13.0868 13.6843 12.5644 13.2525C15.7628 14.8396 20.0763 16.9733 23.8915 18.7404C23.8933 18.7306 23.8962 18.721 23.9003 18.7119Z" fill="#2972B9"/>
<path fill-rule="evenodd" clip-rule="evenodd" d="M23.9845 1C24.6792 1 25.3583 1.20599 25.9359 1.59192C26.5135 1.97786 26.9636 2.5264 27.2295 3.16818C27.4953 3.80997 27.5649 4.51617 27.4293 5.19748C27.2938 5.87879 26.9593 6.50462 26.4681 6.99582C25.9769 7.48702 25.3511 7.82153 24.6698 7.95705C23.9884 8.09257 23.2822 8.02302 22.6405 7.75718C21.9987 7.49135 21.4501 7.04117 21.0642 6.46358C20.6783 5.88599 20.4723 5.20693 20.4723 4.51227C20.4723 3.58076 20.8423 2.6874 21.501 2.02872C22.1597 1.37004 23.053 1 23.9845 1V1ZM34.3018 6.4089C34.709 6.7443 35.0076 7.19293 35.1598 7.69805C35.3121 8.20316 35.3111 8.74207 35.157 9.24662C35.0029 9.75117 34.7026 10.1987 34.2942 10.5326C33.8857 10.8665 33.3874 11.0717 32.8623 11.1224C32.3372 11.173 31.8089 11.0669 31.3441 10.8172C30.8793 10.5676 30.4991 10.1857 30.2513 9.71997C30.0036 9.2542 29.8996 8.72542 29.9524 8.20052C30.0052 7.67562 30.2125 7.17817 30.5481 6.7711C30.7707 6.50065 31.0444 6.27673 31.3535 6.11214C31.6627 5.94755 32.0013 5.84552 32.3499 5.81188C32.6985 5.77824 33.0504 5.81365 33.3853 5.91609C33.7202 6.01853 34.0317 6.18599 34.3018 6.4089ZM13.7156 6.4089C13.3083 6.7443 13.0098 7.19293 12.8575 7.69805C12.7053 8.20316 12.7063 8.74207 12.8604 9.24662C13.0145 9.75117 13.3148 10.1987 13.7232 10.5326C14.1317 10.8665 14.63 11.0717 15.1551 11.1224C15.6802 11.173 16.2085 11.0669 16.6733 10.8172C17.138 10.5676 17.5183 10.1857 17.7661 9.71997C18.0138 9.2542 18.1178 8.72542 18.065 8.20052C18.0122 7.67562 17.8049 7.17817 17.4693 6.7711C17.2467 6.4997 16.9726 6.27496 16.6629 6.10978C16.3531 5.9446 16.0138 5.84225 15.6644 5.80859C15.315 5.77494 14.9624 5.81064 14.6268 5.91366C14.2912 6.01668 13.9793 6.18498 13.709 6.4089H13.7156ZM38.1105 16.2169C38.1757 16.5726 38.134 16.9396 37.9906 17.2716C37.8473 17.6036 37.6087 17.8857 37.3051 18.0821C37.0015 18.2785 36.6464 18.3805 36.2848 18.3751C35.9233 18.3698 35.5714 18.2574 35.2737 18.052C34.976 17.8467 34.7459 17.5578 34.6124 17.2217C34.4789 16.8856 34.4481 16.5175 34.5238 16.1639C34.5996 15.8103 34.7784 15.4871 35.0378 15.2351C35.2972 14.9831 35.6255 14.8137 35.9811 14.7483C36.2174 14.7049 36.4599 14.7084 36.6948 14.7587C36.9297 14.809 37.1523 14.9051 37.3501 15.0415C37.5478 15.1779 37.7167 15.3519 37.8472 15.5535C37.9777 15.7552 38.0671 15.9806 38.1105 16.2169ZM34.7936 25.0766C34.7013 25.2371 34.5636 25.3666 34.3977 25.4487C34.2319 25.5308 34.0454 25.5619 33.8619 25.5379C33.6784 25.514 33.5061 25.4362 33.3668 25.3143C33.2276 25.1924 33.1276 25.0319 33.0796 24.8531C33.0316 24.6744 33.0378 24.4854 33.0972 24.3102C33.1567 24.1349 33.2668 23.9813 33.4137 23.8686C33.5605 23.756 33.7375 23.6895 33.9222 23.6775C34.1068 23.6655 34.2909 23.7085 34.4511 23.8012C34.6654 23.9252 34.8217 24.1291 34.8859 24.3681C34.9501 24.6072 34.9169 24.862 34.7936 25.0766ZM13.1711 25.0766C13.2634 25.2371 13.4011 25.3666 13.567 25.4487C13.7328 25.5308 13.9193 25.5619 14.1028 25.5379C14.2863 25.514 14.4586 25.4362 14.5979 25.3143C14.7371 25.1924 14.8371 25.0319 14.8851 24.8531C14.9331 24.6744 14.9269 24.4854 14.8675 24.3102C14.808 24.1349 14.6979 23.9813 14.551 23.8686C14.4042 23.756 14.2272 23.6895 14.0425 23.6775C13.8579 23.6655 13.6738 23.7085 13.5136 23.8012C13.2993 23.9252 13.143 24.1291 13.0788 24.3681C13.0146 24.6072 13.0478 24.862 13.1711 25.0766ZM28.1817 30.5426C28.0076 30.6051 27.819 30.6145 27.6395 30.5698C27.4601 30.525 27.2979 30.4281 27.1736 30.2912C27.0492 30.1543 26.9683 29.9836 26.9409 29.8006C26.9136 29.6177 26.9411 29.4308 27.02 29.2636C27.0989 29.0963 27.2256 28.9562 27.3841 28.8609C27.5426 28.7656 27.7258 28.7195 27.9105 28.7283C28.0953 28.7372 28.2732 28.8006 28.4219 28.9106C28.5706 29.0206 28.6833 29.1722 28.7459 29.3462C28.7874 29.4618 28.8058 29.5845 28.7999 29.7071C28.794 29.8298 28.764 29.9502 28.7116 30.0613C28.6592 30.1724 28.5855 30.2721 28.4945 30.3546C28.4036 30.4372 28.2973 30.5011 28.1817 30.5426ZM19.783 30.5426C19.9571 30.6051 20.1458 30.6145 20.3252 30.5698C20.5046 30.525 20.6668 30.4281 20.7911 30.2912C20.9155 30.1543 20.9964 29.9836 21.0238 29.8006C21.0511 29.6177 21.0236 29.4308 20.9447 29.2636C20.8658 29.0963 20.7391 28.9562 20.5806 28.8609C20.4221 28.7656 20.2389 28.7195 20.0542 28.7283C19.8694 28.7372 19.6915 28.8006 19.5428 28.9106C19.3941 29.0206 19.2814 29.1722 19.2188 29.3462C19.1773 29.4618 19.159 29.5845 19.1648 29.7071C19.1707 29.8298 19.2007 29.9502 19.2531 30.0613C19.3055 30.1724 19.3792 30.2721 19.4702 30.3546C19.5611 30.4372 19.6674 30.5011 19.783 30.5426ZM9.88937 16.2169C9.82414 16.5726 9.86584 16.9396 10.0092 17.2716C10.1525 17.6036 10.3911 17.8857 10.6947 18.0821C10.9984 18.2785 11.3534 18.3805 11.715 18.3751C12.0766 18.3698 12.4284 18.2574 12.7261 18.052C13.0238 17.8467 13.2539 17.5578 13.3874 17.2217C13.5209 16.8856 13.5517 16.5175 13.476 16.1639C13.4003 15.8103 13.2214 15.4871 12.962 15.2351C12.7026 14.9831 12.3743 14.8137 12.0187 14.7483C11.5416 14.6612 11.0495 14.7669 10.6503 15.0422C10.2511 15.3176 9.97742 15.74 9.88937 16.2169Z" fill="#18488D"/>
<path d="M48 43.9766H0V47.6301H48V43.9766Z" fill="#BCBEC0"/>
<path fill-rule="evenodd" clip-rule="evenodd" d="M4.75574 35.2373C4.90799 35.237 5.05691 35.2819 5.18365 35.3663C5.31039 35.4506 5.40925 35.5707 5.46772 35.7113C5.52619 35.8519 5.54165 36.0066 5.51213 36.156C5.48261 36.3054 5.40944 36.4426 5.30189 36.5504C5.19434 36.6581 5.05723 36.7316 4.90793 36.7614C4.75862 36.7912 4.60383 36.7761 4.46314 36.7179C4.32244 36.6597 4.20218 36.561 4.11756 36.4345C4.03294 36.3079 3.98777 36.1591 3.98777 36.0068C3.98757 35.9058 4.00729 35.8058 4.04579 35.7125C4.0843 35.6191 4.14084 35.5343 4.21217 35.4628C4.2835 35.3913 4.36823 35.3346 4.4615 35.2959C4.55477 35.2572 4.65476 35.2373 4.75574 35.2373ZM15.5481 37.72H16.1692V39.9012C16.1688 39.9975 16.1303 40.0897 16.0622 40.1578C15.9942 40.2259 15.9019 40.2643 15.8056 40.2647H15.1846V38.0835C15.185 37.9872 15.2234 37.895 15.2915 37.8269C15.3596 37.7588 15.4518 37.7204 15.5481 37.72ZM41.9073 42.0354C42.0607 42.0354 42.2106 42.0809 42.3382 42.1661C42.4657 42.2513 42.5651 42.3724 42.6238 42.5142C42.6825 42.6559 42.6979 42.8118 42.6679 42.9622C42.638 43.1127 42.5641 43.2509 42.4557 43.3593C42.3472 43.4678 42.209 43.5416 42.0586 43.5716C41.9082 43.6015 41.7522 43.5861 41.6105 43.5274C41.4688 43.4687 41.3477 43.3693 41.2625 43.2418C41.1772 43.1143 41.1318 42.9643 41.1318 42.8109C41.1318 42.6053 41.2135 42.408 41.3589 42.2626C41.5044 42.1171 41.7016 42.0354 41.9073 42.0354ZM43.6204 42.0354C43.7738 42.0354 43.9238 42.0809 44.0513 42.1661C44.1788 42.2513 44.2783 42.3724 44.3369 42.5142C44.3956 42.6559 44.411 42.8118 44.3811 42.9622C44.3512 43.1127 44.2773 43.2509 44.1688 43.3593C44.0604 43.4678 43.9222 43.5416 43.7717 43.5716C43.6213 43.6015 43.4654 43.5861 43.3237 43.5274C43.1819 43.4687 43.0608 43.3693 42.9756 43.2418C42.8904 43.1143 42.8449 42.9643 42.8449 42.8109C42.8447 42.709 42.8646 42.6081 42.9035 42.5139C42.9424 42.4197 42.9996 42.3342 43.0716 42.2621C43.1437 42.1901 43.2292 42.1329 43.3234 42.094C43.4176 42.0551 43.5185 42.0352 43.6204 42.0354ZM46.6968 42.0354C46.8502 42.0354 47.0002 42.0809 47.1277 42.1661C47.2552 42.2513 47.3546 42.3724 47.4133 42.5142C47.472 42.6559 47.4874 42.8118 47.4575 42.9622C47.4276 43.1127 47.3537 43.2509 47.2452 43.3593C47.1368 43.4678 46.9986 43.5416 46.8481 43.5716C46.6977 43.6015 46.5418 43.5861 46.4001 43.5274C46.2584 43.4687 46.1372 43.3693 46.052 43.2418C45.9668 43.1143 45.9213 42.9643 45.9213 42.8109C45.9213 42.6063 46.0022 42.41 46.1463 42.2647C46.2904 42.1194 46.4862 42.037 46.6908 42.0354H46.6968ZM30.2773 41.581H30.606C30.8948 41.5802 31.1716 41.465 31.3757 41.2606C31.5798 41.0562 31.6947 40.7792 31.695 40.4904V37.9866C31.6954 37.9286 31.7188 37.8731 31.7599 37.8322C31.8011 37.7914 31.8567 37.7684 31.9147 37.7684H32.5948C32.6485 37.7688 32.7002 37.7886 32.7404 37.8243C32.7805 37.86 32.8063 37.909 32.8129 37.9623V40.4253C32.8129 41.175 33.2219 41.4689 33.8475 41.5098H36.0105C36.1421 41.5096 36.2712 41.4739 36.3843 41.4064C36.4973 41.339 36.5901 41.2423 36.6527 41.1266C36.7547 41.2468 36.8816 41.3434 37.0247 41.4096C37.1678 41.4758 37.3236 41.51 37.4813 41.5098H39.1475C39.7534 41.5098 40.2381 41.3099 40.2381 40.7115V41.5098H43.1206C43.2732 41.5096 43.422 41.4614 43.5457 41.3719C43.6694 41.2825 43.7618 41.1564 43.8098 41.0114V41.5098H47.0255C47.2008 41.5094 47.3701 41.446 47.5024 41.3312C47.6348 41.2163 47.7215 41.0577 47.7465 40.8842C47.7503 40.8237 47.7503 40.763 47.7465 40.7024V36.7914H47.4194C47.1304 36.7922 46.8534 36.9074 46.6491 37.1117C46.4447 37.3161 46.3296 37.593 46.3288 37.882V39.9587C46.3276 40.0545 46.2888 40.1459 46.2208 40.2134C46.1528 40.2808 46.061 40.3188 45.9652 40.3192H43.8446C43.8446 39.4846 43.828 38.6879 43.828 37.8472C43.8276 37.6616 43.7538 37.4837 43.6227 37.3523C43.4915 37.2209 43.3138 37.1467 43.1282 37.1459C42.9423 37.1463 42.7641 37.2203 42.6327 37.3517C42.5013 37.4832 42.4272 37.6613 42.4268 37.8472V39.9557C42.4264 40.052 42.388 40.1442 42.3199 40.2123C42.2518 40.2804 42.1596 40.3188 42.0633 40.3192H40.2305V38.0078C40.2297 37.7188 40.1145 37.4418 39.9102 37.2375C39.7058 37.0331 39.4289 36.918 39.1399 36.9172H37.4737C37.1847 36.918 36.9078 37.0331 36.7034 37.2375C36.4991 37.4418 36.3839 37.7188 36.3831 38.0078V39.3271H36.3664V39.9557C36.3661 40.052 36.3276 40.1442 36.2595 40.2123C36.1914 40.2804 36.0992 40.3188 36.0029 40.3192H34.4428C34.3463 40.3192 34.2539 40.2809 34.1857 40.2127C34.1175 40.1446 34.0792 40.0521 34.0792 39.9557L34.0944 37.67C34.0944 37.4691 34.0146 37.2765 33.8725 37.1344C33.7305 36.9924 33.5379 36.9126 33.337 36.9126H31.0483C30.8682 36.9142 30.6946 36.9798 30.5586 37.0978C30.4226 37.2158 30.3331 37.3784 30.3061 37.5564H30.2788V41.581H30.2773ZM38.1811 37.726H38.8036V39.9072C38.8032 40.0035 38.7648 40.0957 38.6967 40.1638C38.6286 40.2319 38.5364 40.2704 38.4401 40.2708H37.8176V38.0835C37.818 37.9872 37.8564 37.895 37.9245 37.8269C37.9926 37.7588 38.0848 37.7204 38.1811 37.72V37.726ZM10.077 39.9587C10.0754 40.0544 10.0365 40.1456 9.96855 40.213C9.90063 40.2803 9.80907 40.3184 9.71342 40.3192H2.06256C1.96679 40.3188 1.87501 40.2808 1.807 40.2134C1.739 40.1459 1.70022 40.0545 1.69903 39.9587V36.7914H1.37033C1.0816 36.7926 0.805052 36.908 0.601025 37.1123C0.396998 37.3166 0.282047 37.5933 0.28125 37.882V40.8054C0.286374 40.995 0.365184 41.1751 0.500942 41.3074C0.6367 41.4398 0.81871 41.514 1.00832 41.5143H13.3533C13.488 41.5142 13.62 41.4769 13.7349 41.4066C13.8498 41.3364 13.9431 41.2358 14.0046 41.116C14.1062 41.2397 14.2338 41.3395 14.3783 41.4083C14.5228 41.4772 14.6807 41.5134 14.8407 41.5143H16.5069C16.6868 41.5145 16.8639 41.4702 17.0224 41.3854C17.181 41.3005 17.3161 41.1778 17.4158 41.0281C17.5378 41.2213 17.7059 41.3811 17.905 41.4931C19.4198 41.4871 20.7477 41.4871 21.8887 41.4931C22.0178 41.4116 22.1287 41.3044 22.2144 41.1781V41.4507L27.1403 41.4644C27.3411 41.4644 27.5338 41.3846 27.6758 41.2425C27.8179 41.1005 27.8976 40.9079 27.8976 40.707V38.4001C27.8965 38.22 27.8312 38.0462 27.7135 37.9099C27.5958 37.7736 27.4334 37.6837 27.2554 37.6563V37.6427H23.2323V37.9699C23.2331 38.2589 23.3483 38.5358 23.5526 38.7402C23.757 38.9445 24.0339 39.0597 24.3229 39.0605H26.8207C26.8789 39.0605 26.9348 39.0836 26.976 39.1248C27.0172 39.166 27.0403 39.2219 27.0403 39.2801V39.9602C27.0399 40.0138 27.02 40.0653 26.9843 40.1052C26.9486 40.1451 26.8996 40.1706 26.8464 40.1768H22.2901C21.7812 38.9651 21.2556 37.7806 19.9575 36.1507H24.0805V35.875C24.0801 35.6392 23.9864 35.4131 23.8198 35.2462C23.6532 35.0793 23.4272 34.9852 23.1914 34.9844H18.7199C17.9505 35.1252 17.9974 35.8478 18.3852 36.3567C19.6818 38.0562 20.419 39.1817 20.5967 39.733C20.7158 40.0451 20.6654 40.193 20.4452 40.1768C19.3839 40.1869 18.5306 40.1869 17.8853 40.1768C17.7475 40.1541 17.6506 40.0254 17.5915 39.777V38.0078C17.5907 37.7188 17.4755 37.4418 17.2712 37.2375C17.0668 37.0331 16.7899 36.918 16.5009 36.9172H14.8407C14.5518 36.918 14.2748 37.0331 14.0705 37.2375C13.8661 37.4418 13.7509 37.7188 13.7502 38.0078V40.0814C13.7245 40.1511 13.678 40.2113 13.6171 40.2538C13.5561 40.2963 13.4836 40.3192 13.4093 40.3192H11.4947V37.882C11.4939 37.593 11.3788 37.3161 11.1744 37.1117C10.9701 36.9074 10.6931 36.7922 10.4041 36.7914H10.077V39.9587ZM6.45071 35.2373C6.6029 35.2373 6.75167 35.2825 6.87821 35.367C7.00475 35.4516 7.10337 35.5717 7.16161 35.7123C7.21985 35.8529 7.23509 36.0077 7.2054 36.1569C7.17571 36.3062 7.10243 36.4433 6.99481 36.5509C6.8872 36.6585 6.75009 36.7318 6.60083 36.7615C6.45156 36.7912 6.29685 36.776 6.15624 36.7177C6.01564 36.6595 5.89546 36.5609 5.81091 36.4343C5.72636 36.3078 5.68123 36.159 5.68123 36.0068C5.68103 35.9057 5.7008 35.8056 5.7394 35.7121C5.778 35.6187 5.83467 35.5338 5.90616 35.4623C5.97765 35.3908 6.06256 35.3341 6.15601 35.2955C6.24945 35.2569 6.3496 35.2371 6.45071 35.2373Z" fill="#18488D"/>
<path fill-rule="evenodd" clip-rule="evenodd" d="M0.5 47.0424V44.5068H1.01046V45.505H2.0026V44.5068H2.51306V47.0424H2.0026V45.9337H1.01046V47.0424H0.5ZM45.6675 47.0424V44.5068H47.5336V44.9339H46.1779V45.4974H47.4382V45.9261H46.1779V46.6138H47.5821V47.0424H45.6675ZM44.7374 46.1063L45.2312 46.2578C45.1769 46.5013 45.0438 46.7201 44.8526 46.8804C44.6588 47.0218 44.4228 47.0934 44.183 47.0833C44.0288 47.0881 43.8752 47.0598 43.7328 47.0002C43.5904 46.9406 43.4625 46.8512 43.3575 46.738C43.1313 46.4768 43.0156 46.1378 43.0349 45.7928C43.0126 45.4356 43.1286 45.0836 43.359 44.8097C43.4677 44.6931 43.6003 44.6013 43.7478 44.5407C43.8952 44.48 44.054 44.4519 44.2133 44.4583C44.3515 44.4521 44.4896 44.4733 44.6195 44.5206C44.7495 44.5679 44.8689 44.6404 44.9707 44.734C45.0966 44.8644 45.1855 45.0259 45.2282 45.2021L44.7253 45.3232C44.699 45.2006 44.6311 45.0909 44.5329 45.0127C44.4352 44.9358 44.3135 44.8956 44.1891 44.8991C44.103 44.8967 44.0174 44.9137 43.9388 44.9488C43.8601 44.9839 43.7904 45.0363 43.7347 45.1021C43.6017 45.293 43.54 45.5246 43.5605 45.7564C43.5605 46.076 43.6181 46.3048 43.7317 46.4411C43.7865 46.5079 43.8561 46.5611 43.9349 46.5966C44.0137 46.6321 44.0997 46.6489 44.1861 46.6456C44.3149 46.6476 44.4398 46.6011 44.536 46.5153C44.6463 46.4039 44.7193 46.261 44.745 46.1063H44.7374ZM40.5841 47.0424V44.5068H41.0779L42.1094 46.2048V44.5068H42.5805V47.0424H42.0715L41.0491 45.3762V47.0424H40.5841ZM40.3129 47.0424H39.7631L39.545 46.4638H38.5346L38.3226 47.0424H37.7818L38.7603 44.5068H39.2996L40.3099 47.0424H40.3129ZM39.3829 46.0367L39.033 45.0975L38.6922 46.0367H39.3829ZM35.5037 47.0424V44.5068H36.5746C36.7729 44.4974 36.9714 44.5205 37.1623 44.575C37.2847 44.6204 37.3883 44.7058 37.4562 44.8173C37.5296 44.9371 37.5674 45.0752 37.5652 45.2157C37.5715 45.3882 37.5119 45.5566 37.3986 45.6868C37.2661 45.8215 37.09 45.9047 36.9018 45.9215C37.0022 45.9784 37.0936 46.0499 37.1729 46.1336C37.2809 46.2621 37.3772 46.4 37.4607 46.5456L37.7637 47.0409H37.1578L36.7927 46.4865C36.7112 46.3569 36.6212 46.233 36.5231 46.1154C36.4817 46.0686 36.4298 46.0323 36.3716 46.0094C36.2876 45.9878 36.2008 45.9786 36.1141 45.9821H36.0111V47.0424H35.5037ZM36.0142 45.5792H36.3898C36.542 45.587 36.6946 45.5763 36.8442 45.5474C36.9028 45.5293 36.9532 45.4913 36.9866 45.4399C37.0229 45.3836 37.0409 45.3174 37.0381 45.2505C37.0424 45.1764 37.0178 45.1034 36.9695 45.047C36.9213 44.9905 36.853 44.9549 36.7791 44.9476C36.7382 44.9476 36.614 44.9385 36.408 44.9385H36.0111V45.5792H36.0142ZM32.962 44.5068H33.4755V45.8806C33.4714 46.0218 33.4775 46.163 33.4937 46.3033C33.5121 46.4026 33.5659 46.4919 33.6451 46.5547C33.7427 46.6221 33.8599 46.6551 33.9784 46.6486C34.093 46.6573 34.2071 46.6257 34.301 46.5592C34.3707 46.5058 34.4173 46.4278 34.4313 46.3411C34.4498 46.198 34.4574 46.0537 34.454 45.9094V44.5068H34.9645V45.8398C34.9709 46.0556 34.9572 46.2717 34.9236 46.485C34.8997 46.6023 34.8477 46.712 34.7721 46.8046C34.6911 46.8955 34.5899 46.966 34.4767 47.0106C34.3221 47.0673 34.1581 47.0936 33.9935 47.0879C33.808 47.0976 33.6224 47.0692 33.4482 47.0046C33.3309 46.9571 33.2269 46.8817 33.1453 46.7849C33.0777 46.7034 33.0296 46.6076 33.0044 46.5047C32.9653 46.292 32.9485 46.0757 32.9544 45.8594V44.5068H32.962ZM30.4809 46.2199L30.9762 46.17C30.9921 46.3101 31.0564 46.4402 31.158 46.538C31.2615 46.6211 31.392 46.6631 31.5245 46.6562C31.6562 46.6657 31.787 46.6287 31.8941 46.5517C31.9323 46.5231 31.9633 46.486 31.9849 46.4435C32.0064 46.4009 32.0179 46.354 32.0183 46.3063C32.0188 46.2514 32.0006 46.198 31.9668 46.1548C31.9166 46.1027 31.8533 46.065 31.7835 46.0458C31.7245 46.0245 31.5897 45.9882 31.3791 45.9352C31.1711 45.8967 30.975 45.8101 30.8065 45.6822C30.733 45.6192 30.6741 45.5409 30.6341 45.4527C30.5941 45.3645 30.5738 45.2686 30.5748 45.1718C30.5745 45.0425 30.6125 44.916 30.6839 44.8082C30.7597 44.6925 30.8691 44.6027 30.9974 44.5507C31.1547 44.4876 31.3232 44.4572 31.4927 44.4614C31.748 44.4426 32.0012 44.5181 32.2046 44.6734C32.2835 44.7446 32.3465 44.8315 32.3895 44.9286C32.4326 45.0257 32.4547 45.1307 32.4546 45.2369L31.9441 45.2551C31.9347 45.1473 31.8855 45.0469 31.8063 44.9733C31.7121 44.9091 31.5989 44.8786 31.4851 44.887C31.3636 44.8799 31.243 44.9123 31.1413 44.9794C31.1168 44.9964 31.0967 45.019 31.0827 45.0453C31.0687 45.0717 31.0613 45.101 31.061 45.1309C31.0616 45.1602 31.0687 45.189 31.0818 45.2152C31.0949 45.2414 31.1137 45.2643 31.1368 45.2823C31.2802 45.3678 31.4385 45.4254 31.6033 45.452C31.7923 45.4909 31.9759 45.5524 32.1501 45.6353C32.2648 45.694 32.3612 45.7831 32.4288 45.8928C32.499 46.0151 32.5336 46.1547 32.5288 46.2957C32.5289 46.4406 32.4873 46.5826 32.4091 46.7047C32.3279 46.8324 32.2087 46.9314 32.0683 46.9879C31.8934 47.0547 31.7071 47.0861 31.52 47.0803C31.2562 47.0977 30.9951 47.0186 30.7853 46.8576C30.6057 46.6891 30.4973 46.4582 30.4824 46.2124L30.4809 46.2199ZM28.0725 47.0424V44.5068H28.5663L29.6039 46.2048V44.5068H30.0749V47.0424H29.566L28.5435 45.3762V47.0424H28.0725ZM27.0773 47.0424V44.5068H27.5878V47.0424H27.0773ZM25.9761 47.0424H25.4263L25.2081 46.4638H24.1978L23.9888 47.0424H23.448L24.4265 44.5068H24.9658L25.9761 47.0424ZM25.043 46.0367L24.6901 45.0975L24.3493 46.0367H25.043ZM21.1608 44.5068H22.1681C22.32 44.5031 22.4719 44.5112 22.6225 44.531C22.717 44.5462 22.8069 44.5824 22.8855 44.6369C22.9642 44.6914 23.0296 44.7629 23.0769 44.8461C23.13 44.9381 23.1567 45.0429 23.1542 45.149C23.1537 45.2646 23.1203 45.3776 23.0578 45.4747C22.9952 45.5719 22.9062 45.6491 22.8012 45.6974C22.9405 45.7343 23.0642 45.815 23.1542 45.9276C23.2366 46.0381 23.2797 46.173 23.2769 46.3108C23.2771 46.428 23.2501 46.5436 23.1981 46.6486C23.148 46.753 23.0725 46.8431 22.9785 46.9107C22.8769 46.9788 22.7596 47.02 22.6376 47.0303C22.5528 47.0394 22.3509 47.0455 22.0318 47.0485H21.1608V44.5068ZM21.6713 44.9279V45.5186H22.0045C22.2014 45.5186 22.3256 45.5186 22.3741 45.5095C22.4506 45.5034 22.5227 45.4713 22.5786 45.4187C22.6037 45.3926 22.6233 45.3617 22.6361 45.3279C22.6488 45.294 22.6545 45.2579 22.6528 45.2217C22.6561 45.1524 22.6334 45.0844 22.5892 45.0309C22.5384 44.9785 22.4697 44.9471 22.3968 44.943C22.3468 44.943 22.2014 44.9339 21.9636 44.9339L21.6713 44.9279ZM21.6713 45.9337V46.6138H22.1423C22.2592 46.6168 22.3761 46.6117 22.4922 46.5986C22.5633 46.586 22.6283 46.5503 22.677 46.4971C22.7266 46.4361 22.7519 46.359 22.7482 46.2805C22.7506 46.2118 22.7315 46.1441 22.6937 46.0867C22.6564 46.0331 22.6035 45.9924 22.5422 45.97C22.393 45.9379 22.2402 45.9257 22.0878 45.9337H21.6713ZM20.8897 47.0424H20.3398L20.1217 46.4638H19.1114L18.9023 47.0424H18.3616L19.3401 44.5068H19.8793L20.8897 47.0424ZM19.9566 46.0367L19.6067 45.0975L19.2659 46.0367H19.9566ZM16.138 46.2199L16.6333 46.17C16.6492 46.3101 16.7135 46.4402 16.8151 46.538C16.9191 46.6213 17.0501 46.6634 17.1831 46.6562C17.3143 46.6657 17.4446 46.6287 17.5512 46.5517C17.5894 46.5231 17.6204 46.486 17.642 46.4435C17.6635 46.4009 17.675 46.354 17.6754 46.3063C17.6766 46.2513 17.6584 46.1977 17.6239 46.1548C17.5737 46.1027 17.5104 46.065 17.4406 46.0458C17.3816 46.0245 17.2468 45.9882 17.0362 45.9352C16.8283 45.8964 16.6323 45.8098 16.4636 45.6822C16.3418 45.5755 16.2624 45.4285 16.2399 45.268C16.2173 45.1076 16.2532 44.9444 16.341 44.8082C16.4186 44.6907 16.5308 44.6002 16.6621 44.5492C16.8194 44.4861 16.9879 44.4557 17.1574 44.4598C17.4126 44.4411 17.6659 44.5166 17.8693 44.6719C17.9481 44.7431 18.0111 44.83 18.0542 44.9271C18.0972 45.0241 18.1194 45.1292 18.1192 45.2354L17.6088 45.2536C17.6001 45.1456 17.5508 45.0449 17.4709 44.9718C17.3772 44.9078 17.2646 44.8774 17.1513 44.8855C17.0293 44.8782 16.9081 44.9106 16.806 44.9779C16.7814 44.9949 16.7613 45.0175 16.7474 45.0438C16.7334 45.0702 16.726 45.0995 16.7257 45.1293C16.7263 45.1586 16.7333 45.1874 16.7464 45.2136C16.7595 45.2398 16.7783 45.2628 16.8014 45.2808C16.9442 45.3695 17.1025 45.4302 17.268 45.4596C17.457 45.4982 17.6406 45.5597 17.8148 45.6428C17.9298 45.7011 18.0263 45.7903 18.0935 45.9003C18.1637 46.0227 18.1983 46.1623 18.1935 46.3033C18.1935 46.4482 18.152 46.5902 18.0738 46.7122C17.9926 46.8399 17.8734 46.939 17.733 46.9955C17.5582 47.0624 17.3717 47.0938 17.1847 47.0879C16.9213 47.1056 16.6605 47.0264 16.4515 46.8652C16.2714 46.6971 16.1629 46.466 16.1486 46.2199H16.138ZM13.7144 47.0424V44.9339H12.9646V44.5068H14.9641V44.9339H14.2203V47.0424H13.7144ZM13.1373 47.0424L12.1179 44.5068H11.5847L10.6032 47.0424H11.1424L11.3606 46.4638H12.3724L12.589 47.0424H13.1373ZM12.2043 46.0367H11.512L11.8513 45.0975L12.2012 46.0367H12.2043ZM7.92819 47.0424V44.5068H8.68555L9.13997 46.2351L9.58681 44.5068H10.3533V47.0424H9.88067V45.046L9.38384 47.0424H8.89156L8.39776 45.046V47.0424H7.92819ZM5.40012 47.0424V44.5068H5.90755V45.6292L6.93605 44.5068H7.61919L6.66492 45.4929L7.66463 47.0424H7.01027L6.31653 45.8519L5.90755 46.276V47.044L5.40012 47.0424ZM3.04625 47.0424V44.5068H4.90784V44.9339H3.55216V45.4974H4.81241V45.9261H3.55216V46.6138H4.95631V47.0424H3.04625Z" fill="#18488D"/>
<path fill-rule="evenodd" clip-rule="evenodd" d="M9.61252 38.0425L9.62615 39.3527C9.63831 39.4987 9.61814 39.6456 9.56707 39.7829C9.48982 39.9343 9.32018 40.004 9.05661 40.004H6.95418C6.77999 40.004 6.67396 39.9495 6.63609 39.8419C6.61053 39.8906 6.57222 39.9314 6.52526 39.9599C6.4783 39.9885 6.42446 40.0037 6.3695 40.004H5.30919C5.17352 39.9966 5.0455 39.9388 4.9502 39.8419C4.93756 39.8911 4.90802 39.9343 4.86677 39.9639C4.82552 39.9936 4.77516 40.0077 4.72451 40.004H2.82202C2.45546 40.004 2.23885 39.8525 2.16918 39.5329C2.14822 39.4421 2.1431 39.3483 2.15403 39.2557L2.16463 36.8867H3.01742V39.1118C3.01592 39.1376 3.01592 39.1634 3.01742 39.1891C3.02525 39.235 3.05028 39.2763 3.08742 39.3044C3.12456 39.3325 3.17103 39.3455 3.21736 39.3406H3.69147H3.97169C4.08984 39.3406 4.16255 39.3209 4.18678 39.2815C4.20612 39.2131 4.2128 39.1417 4.20648 39.0709V37.6713H5.06532V39.1118C5.06428 39.1454 5.06733 39.179 5.07441 39.2118C5.09259 39.2966 5.16075 39.3406 5.2789 39.3406H5.60911C5.76058 39.3406 5.84389 39.2497 5.84389 39.0709V38.2485H6.69668L6.68153 39.1573C6.6798 39.1759 6.6798 39.1947 6.68153 39.2133C6.68537 39.25 6.70331 39.2838 6.73156 39.3075C6.75982 39.3313 6.79619 39.3431 6.833 39.3406C6.86927 39.3404 6.90443 39.3281 6.93297 39.3057L8.54767 37.9288C8.70103 37.7964 8.89791 37.7252 9.10054 37.7289C9.2019 37.7276 9.30244 37.7472 9.39591 37.7865C9.4429 37.8027 9.48517 37.8303 9.51898 37.8667C9.55279 37.9032 9.57711 37.9474 9.5898 37.9955C9.59151 38.0111 9.59151 38.0268 9.5898 38.0425H9.61252ZM8.89605 38.5529L7.92815 39.3406H8.48253C8.75518 39.3406 8.89302 39.2179 8.89605 38.9755V38.5544V38.5529ZM3.61574 40.522C3.69968 40.5235 3.78133 40.5497 3.85047 40.5974C3.91962 40.645 3.97319 40.712 4.00449 40.7899C4.03579 40.8678 4.04344 40.9532 4.02648 41.0354C4.00952 41.1177 3.9687 41.1931 3.90912 41.2522C3.84954 41.3114 3.77385 41.3517 3.6915 41.3681C3.60915 41.3845 3.5238 41.3762 3.44611 41.3444C3.36843 41.3125 3.30185 41.2585 3.2547 41.189C3.20755 41.1195 3.18192 41.0377 3.18101 40.9537C3.18081 40.8967 3.19193 40.8403 3.21375 40.7876C3.23556 40.7349 3.26762 40.6871 3.30807 40.647C3.34852 40.6068 3.39655 40.5751 3.44936 40.5536C3.50218 40.5322 3.55873 40.5214 3.61574 40.522Z" fill="#A7A9AC"/>
</svg>
